<svg width="289" height="68" viewBox="0 0 289 68" fill="none" xmlns="http://www.w3.org/2000/svg">
<circle cx="34" cy="34" r="34" fill="#0B5CD4"/>
<path d="M19.08 46.504C18.048 46.504 16.998 46.414 15.93 46.234C14.874 46.066 13.896 45.85 12.996 45.586C12.096 45.322 11.358 45.058 10.782 44.794L11.286 40.618C12.018 40.978 12.84 41.326 13.752 41.662C14.676 41.998 15.648 42.28 16.668 42.508C17.688 42.736 18.72 42.85 19.764 42.85C21.216 42.85 22.374 42.58 23.238 42.04C24.102 41.488 24.534 40.636 24.534 39.484C24.534 38.62 24.306 37.918 23.85 37.378C23.394 36.826 22.704 36.352 21.78 35.956C20.868 35.548 19.704 35.122 18.288 34.678C16.932 34.246 15.69 33.742 14.562 33.166C13.446 32.59 12.552 31.84 11.88 30.916C11.208 29.98 10.872 28.762 10.872 27.262C10.872 25.906 11.214 24.706 11.898 23.662C12.594 22.606 13.614 21.784 14.958 21.196C16.302 20.596 17.964 20.296 19.944 20.296C21.552 20.296 23.046 20.476 24.426 20.836C25.818 21.184 26.982 21.562 27.918 21.97L27.522 26.074C26.13 25.33 24.81 24.79 23.562 24.454C22.326 24.118 21.054 23.95 19.746 23.95C18.33 23.95 17.184 24.202 16.308 24.706C15.444 25.21 15.012 26.008 15.012 27.1C15.012 27.892 15.222 28.534 15.642 29.026C16.062 29.506 16.68 29.92 17.496 30.268C18.312 30.616 19.308 30.976 20.484 31.348C22.272 31.888 23.79 32.5 25.038 33.184C26.286 33.868 27.234 34.702 27.882 35.686C28.542 36.67 28.872 37.888 28.872 39.34C28.872 40.276 28.704 41.17 28.368 42.022C28.044 42.874 27.504 43.642 26.748 44.326C25.992 44.998 24.984 45.532 23.724 45.928C22.476 46.312 20.928 46.504 19.08 46.504ZM35.6591 46V20.8H39.5831V31.024H51.8591V20.8H55.7831V46H51.8591V34.714H39.5831V46H35.6591Z" fill="white"/>
<path d="M80.794 46V24.472H73.54V20.8H91.972V24.472H84.718V46H80.794ZM98.2177 46V20.8H106.84C108.592 20.8 110.116 21.076 111.412 21.628C112.72 22.168 113.734 23.002 114.454 24.13C115.174 25.258 115.534 26.698 115.534 28.45C115.534 30.226 115.15 31.684 114.382 32.824C113.626 33.952 112.564 34.846 111.196 35.506L116.866 46H112.276L107.272 36.37C107.236 36.37 107.206 36.37 107.182 36.37C107.158 36.37 107.128 36.37 107.092 36.37H102.25V46H98.2177ZM102.25 32.968H106.3C108.088 32.968 109.39 32.566 110.206 31.762C111.034 30.958 111.448 29.89 111.448 28.558C111.448 27.178 111.04 26.11 110.224 25.354C109.408 24.586 108.124 24.202 106.372 24.202H102.25V32.968ZM136.856 39.556H126.164V36.046H136.856V39.556ZM130.97 24.634H132.05L124.508 46H120.548L129.548 20.8H133.472L142.472 46H138.512L130.97 24.634ZM148.38 46V20.8H157.758C160.182 20.8 162.33 21.298 164.202 22.294C166.086 23.29 167.562 24.73 168.63 26.614C169.698 28.486 170.232 30.748 170.232 33.4C170.232 36.052 169.698 38.32 168.63 40.204C167.562 42.076 166.086 43.51 164.202 44.506C162.33 45.502 160.182 46 157.758 46H148.38ZM152.304 42.472H157.758C159.558 42.472 161.064 42.1 162.276 41.356C163.488 40.6 164.4 39.544 165.012 38.188C165.636 36.82 165.948 35.224 165.948 33.4C165.948 31.576 165.636 29.986 165.012 28.63C164.4 27.262 163.488 26.206 162.276 25.462C161.064 24.706 159.558 24.328 157.758 24.328H152.304V42.472ZM177.311 46V20.8H181.235V46H177.311ZM189.789 46V20.8H193.857L205.575 38.566V20.8H209.517V46H206.241L193.713 27.208V46H189.789ZM229.067 46.504C226.595 46.504 224.417 45.964 222.533 44.884C220.661 43.804 219.197 42.28 218.141 40.312C217.097 38.344 216.575 36.028 216.575 33.364C216.575 30.724 217.133 28.426 218.249 26.47C219.377 24.502 220.925 22.984 222.893 21.916C224.861 20.836 227.117 20.296 229.661 20.296C231.005 20.296 232.289 20.44 233.513 20.728C234.737 21.004 235.799 21.346 236.699 21.754L236.285 25.336C235.337 24.94 234.317 24.61 233.225 24.346C232.133 24.082 230.963 23.95 229.715 23.95C227.687 23.95 226.019 24.37 224.711 25.21C223.403 26.038 222.431 27.166 221.795 28.594C221.171 30.01 220.859 31.594 220.859 33.346C220.859 35.182 221.177 36.814 221.813 38.242C222.461 39.67 223.439 40.798 224.747 41.626C226.055 42.442 227.705 42.85 229.697 42.85C230.237 42.85 230.861 42.808 231.569 42.724C232.277 42.628 232.955 42.478 233.603 42.274V36.766H229.841V33.364H237.527V44.596C236.579 45.124 235.379 45.574 233.927 45.946C232.475 46.318 230.855 46.504 229.067 46.504ZM254.723 46V32H256.903V44.04H263.043V46H254.723ZM266.343 46V32H268.523V44.04H274.663V46H266.343ZM283.862 46.28C282.475 46.28 281.245 45.98 280.172 45.38C279.105 44.78 278.268 43.9367 277.662 42.85C277.055 41.7567 276.752 40.4733 276.752 39C276.752 37.5267 277.058 36.2467 277.672 35.16C278.292 34.0667 279.145 33.22 280.232 32.62C281.318 32.02 282.555 31.72 283.942 31.72C284.662 31.72 285.338 31.7967 285.972 31.95C286.605 32.1033 287.158 32.3 287.632 32.54L287.392 34.59C286.892 34.35 286.355 34.15 285.782 33.99C285.208 33.83 284.588 33.75 283.922 33.75C282.868 33.75 281.988 33.9833 281.282 34.45C280.575 34.91 280.038 35.5367 279.672 36.33C279.312 37.1167 279.132 38.0067 279.132 39C279.132 39.9933 279.308 40.8867 279.662 41.68C280.022 42.4667 280.552 43.0933 281.252 43.56C281.958 44.02 282.832 44.25 283.872 44.25C284.558 44.25 285.182 44.1767 285.742 44.03C286.308 43.8767 286.858 43.6733 287.392 43.42L287.632 45.47C287.118 45.7033 286.545 45.8967 285.912 46.05C285.285 46.2033 284.602 46.28 283.862 46.28Z" fill="black"/>
</svg>
