<svg width="587" height="288" viewBox="0 0 587 288" fill="none" xmlns="http://www.w3.org/2000/svg">
<g clip-path="url(#clip0_1963_6857)">
<path fill-rule="evenodd" clip-rule="evenodd" d="M67.1984 147.165L48.9391 96.8041L30.5953 147.165H67.1984ZM52.4203 86.6121L95.9864 206.697H88.8527L69.6609 153.873H28.1328L8.59896 206.697H1.38074L45.4579 86.6121H52.4203Z" fill="#00ADEF"/>
<path fill-rule="evenodd" clip-rule="evenodd" d="M162.864 91.7948C147.804 91.7948 134.923 97.1454 124.223 107.845C113.522 118.545 108.172 131.425 108.172 146.487C108.172 161.603 113.522 174.509 124.223 185.212C134.923 195.912 147.804 201.263 162.864 201.263C177.981 201.263 190.889 195.912 201.591 185.212C212.291 174.509 217.64 161.603 217.64 146.487C217.64 131.425 212.291 118.545 201.591 107.845C190.889 97.1454 177.981 91.7948 162.864 91.7948ZM162.185 208.142C145.483 207.971 131.214 201.94 119.382 190.052C107.323 178.051 101.294 163.528 101.294 146.487C101.294 129.501 107.309 114.993 119.34 102.961C131.371 90.9308 145.879 84.9134 162.864 84.9134C179.905 84.9134 194.441 90.9308 206.472 102.961C218.503 114.993 224.519 129.501 224.519 146.487C224.519 163.528 218.517 178.051 206.515 190.052C197.796 198.771 187.804 204.32 176.536 206.697C180.727 207.83 185.908 210.349 192.079 214.256C196.268 216.52 200.571 217.964 204.987 218.588C211.045 218.418 214.357 215.02 214.923 208.396H221.717C220.415 218.135 215.376 223.343 206.601 224.023C199.411 224.023 192.673 222.125 186.388 218.331C179.367 214.652 173.819 212.671 169.743 212.388C165.948 212.671 163.117 213.663 161.251 215.36C159.381 217.059 158.123 219.068 157.472 221.388C156.82 223.711 156.467 225.155 156.409 225.72H149.616C151.144 215.813 155.335 209.952 162.185 208.142Z" fill="#00ADEF"/>
<path fill-rule="evenodd" clip-rule="evenodd" d="M310.868 86.6123H317.663V172.896C316.416 182.07 312.593 189.854 306.196 196.252C298.553 203.895 289.325 207.718 278.512 207.718C267.641 207.718 258.385 203.895 250.741 196.252C243.097 188.607 239.276 179.38 239.276 168.567V86.6123H246.069V168.567C246.069 177.455 249.24 185.07 255.581 191.411C261.921 197.752 269.565 200.923 278.512 200.923C287.457 200.923 295.085 197.752 301.399 191.411C307.712 185.07 310.868 177.455 310.868 168.567V86.6123Z" fill="#00ADEF"/>
<path fill-rule="evenodd" clip-rule="evenodd" d="M392.761 147.165L374.501 96.8041L356.157 147.165H392.761ZM377.983 86.6121L421.548 206.697H414.416L395.223 153.873H353.695L334.161 206.697H326.943L371.02 86.6121H377.983Z" fill="#00ADEF"/>
<mask id="mask0_1963_6857" style="mask-type:luminance" maskUnits="userSpaceOnUse" x="434" y="230" width="153" height="58">
<path d="M434.664 287.547H586.253V230.297H434.664V287.547Z" fill="white"/>
</mask>
<g mask="url(#mask0_1963_6857)">
<path d="M465.6 287.547V287.28H465.467V287.147H465.333V286.88H465.2V286.747H465.067V286.614H464.933V286.347H464.8V286.214H464.667V286.08H464.533V285.814H464.4V285.68H464.267V285.414H464.133V285.28H464V285.147H463.867V284.88H463.733V284.747H463.6V284.48H463.467V284.347H463.333V284.214H463.2V283.947H463.067V283.814H462.933V283.68H462.8V283.414H462.667V283.28H462.533V283.014H462.4V282.88H462.267V282.747H462.133V282.48H462V282.347H461.867V282.214H461.733V281.947H461.6V281.814H461.467V281.547H461.333V281.414H461.2V281.28H461.067V281.014H460.933V280.88H460.8V280.747H460.667V280.48H460.533V280.347H460.4V280.08H460.267V279.947H460.133V279.814H460V279.547H459.867V279.414H459.733V279.147H459.6V279.014H459.467V278.88H459.333V278.614H459.2V278.48H459.067V278.347H458.933V278.08H458.8V277.947H458.667V277.68H458.533V277.547H458.4V277.414H458.267V277.147H458.133V277.014H458V276.88H457.867V276.614H457.733V276.48H457.6V276.214H457.467V276.08H457.333V275.947H457.2V275.68H457.067V275.547H456.933V275.28H456.8V275.147H456.667V275.014H456.533V274.747H456.4V274.614H456.267V274.48H456.133V274.214H456V274.08H455.867V273.814H455.733V273.68H455.6V273.547H455.467V273.28H455.333V273.147H455.2V273.014H455.067V272.747H454.933V272.614H454.8V272.347H454.667V272.214H454.533V272.08H454.4V271.814H454.267V271.68H454.133V271.547H454V271.28H453.867V271.147H453.733V270.88H453.6V270.747H453.467V270.614H453.333V270.347H453.2V270.214H453.067V269.947H452.933V269.814H452.8V269.68H452.667V269.414H452.533V269.28H452.4V269.147H452.267V268.88H452.133V268.747H452V268.48H451.867V268.347H451.733V268.214H451.6V267.947H451.467V267.814H451.333V267.68H451.2V267.414H451.067V267.28H450.933V267.014H450.8V266.88H450.667V266.747H450.533V266.48H450.4V266.347H450.267V266.08H450.133V265.947H450V265.814H449.867V265.547H449.733V265.414H449.6V265.28H449.467V265.014H449.333V264.88H449.2V264.614H449.067V264.48H448.933V264.347H448.8V264.08H448.667V263.947H448.533V263.814H448.4V263.547H448.267V263.414H448.133V263.147H448V263.014H447.867V262.88H447.733V262.614H447.6V262.48H447.467V262.347H447.333V262.08H447.2V261.947H447.067V261.68H446.933V261.547H446.8V261.414H446.667V261.147H446.533V261.014H446.4V260.747H446.267V260.614H446.133V260.48H446V260.214H445.867V260.08H445.733V259.947H445.6V259.68H445.467V259.547H445.333V259.28H445.2V259.147H445.067V259.014H444.933V258.747H444.8V258.614H444.667V258.48H444.533V258.214H444.4V258.08H444.267V257.814H444.133V257.68H444V257.547H443.867V257.28H443.733V257.147H443.6V256.88H443.467V256.747H443.333V256.614H443.2V256.347H443.067V256.214H442.933V256.08H442.8V255.814H442.667V255.68H442.533V255.414H442.4V255.28H442.267V255.147H442.133V254.88H442V254.747H441.867V254.614H441.733V254.347H441.6V254.214H441.467V253.947H441.333V253.814H441.2V253.68H441.067V253.414H440.933V253.28H440.8V253.014H440.667V252.88H440.533V252.747H440.4V252.48H440.267V252.347H440.133V252.214H440V251.947H439.867V251.814H439.733V251.547H439.6V251.414H439.467V251.28H439.333V251.014H439.2V250.88H439.067V250.747H438.933V250.48H438.8V250.347H438.667V250.08H438.533V249.947H438.4V249.814H438.267V249.547H438.133V249.414H438V249.28H437.867V249.014H437.733V248.88H437.6V248.614H437.467V248.48H437.333V248.347H437.2V248.08H437.067V247.947H436.933V247.68H436.8V247.547H436.667V247.414H436.533V247.147H436.4V247.014H436.267V246.88H436.133V246.614H436V246.48H435.867V246.214H435.733V246.08H435.6V245.947H435.467V245.68H435.333V245.547H435.2V245.414H435.067V245.147H434.933V245.014H434.8V244.747H434.667V244.614H434.533V244.48H434.667V244.347H434.8V244.08H434.933V243.947H435.067V243.814H435.2V243.547H435.333V243.414H435.467V243.147H435.6V243.014H435.733V242.88H435.867V242.614H436V242.48H436.133V242.347H436.267V242.08H436.4V241.947H436.533V241.68H436.667V241.547H436.8V241.414H436.933V241.147H437.067V241.014H437.2V240.88H437.333V240.614H437.467V240.48H437.6V240.347H437.733V240.08H437.867V239.947H438V239.68H438.133V239.547H438.267V239.414H438.4V239.147H438.533V239.014H438.667V238.88H438.8V238.614H438.933V238.48H439.067V238.347H439.2V238.08H439.333V237.947H439.467V237.68H439.6V237.547H439.733V237.414H439.867V237.147H440V237.014H440.133V236.88H440.267V236.614H440.4V236.48H440.533V236.347H440.667V236.08H440.8V235.947H440.933V235.68H441.067V235.547H441.2V235.414H441.333V235.147H441.467V235.014H441.6V234.88H441.733V234.614H441.867V234.48H442V234.347H442.133V234.08H442.267V233.947H442.4V233.68H442.533V233.547H442.667V233.414H442.8V233.147H442.933V233.014H443.067V232.88H443.2V232.614H443.333V232.48H443.467V232.347H443.6V232.08H443.733V231.947H443.867V231.68H444V231.547H444.133V231.414H444.267V231.147H444.4V231.014H444.533V230.88H444.667V230.614H444.8V230.48H444.933V230.214H445.333V230.347H445.733V230.48H446.267V230.614H446.667V230.747H447.067V230.88H447.6V231.014H448V231.147H448.4V231.28H448.933V231.414H449.333V231.547H449.867V231.68H450.267V231.814H450.667V231.947H451.2V232.08H451.6V232.214H452V232.347H452.533V232.48H452.933V232.614H453.333V232.747H453.867V232.88H454.267V233.014H454.667V233.147H455.2V233.28H455.6V233.414H456V233.547H456.533V233.68H456.933V233.814H457.467V233.947H457.867V234.08H458.267V234.214H458.8V234.347H459.2V234.48H459.6V234.614H460.133V234.747H460.533V234.88H460.933V235.014H461.467V235.147H461.867V235.28H462.267V235.414H462.8V235.547H463.2V235.68H463.6V235.814H464.133V235.947H464.533V236.08H465.067V236.214H465.467V236.347H465.867V236.48H466.4V236.614H466.8V236.747H467.2V236.88H467.733V237.014H468.133V237.147H468.533V237.28H469.067V237.414H469.467V237.547H469.867V237.68H470.4V237.814H470.8V237.947H471.2V238.08H471.733V238.214H472.133V238.347H472.667V238.48H473.067V238.614H473.467V238.747H474V238.88H474.4V239.014H474.8V239.147H475.333V239.28H475.733V239.414H476.133V239.547H476.667V239.68H477.067V239.814H477.467V239.947H478V240.08H478.4V240.214H478.8V240.347H479.333V240.48H479.733V240.614H480.267V240.747H480.667V240.88H481.067V241.014H481.6V241.147H482V241.28H482.4V241.414H482.933V241.547H483.333V241.68H483.733V241.814H484.267V241.947H484.667V242.08H485.067V242.214H485.6V242.347H486V242.48H486.4V242.614H486.933V242.747H487.333V242.88H487.867V243.014H488.267V243.147H488.667V243.28H489.2V243.414H489.6V243.547H490V243.68H490.533V243.814H490.933V243.947H491.333V244.08H491.867V244.214H492.267V244.347H492.667V244.48H493.2V244.614H493.6V244.747H494V244.88H494.533V245.014H494.933V245.147H495.467V245.28H495.867V245.414H496.267V245.547H496.8V245.68H497.2V245.814H497.6V245.947H498.133V246.08H498.533V246.214H498.933V246.347H499.467V246.48H499.867V246.614H500.267V246.747H500.8V246.88H501.2V247.014H501.6V247.147H502.133V247.28H502.533V247.414H503.067V247.547H503.467V247.68H503.867V247.814H504.4V247.947H504.8V248.08H505.2V248.214H505.733V248.347H506.133V248.48H506.533V248.614H507.067V248.747H507.467V248.88H507.867V249.014H508.4V249.147H508.8V249.28H509.2V249.414H509.733V249.547H510.133V249.68H510.667V249.814H511.067V249.947H511.467V250.08H512V250.214H512.4V250.347H512.8V250.48H513.333V250.614H513.733V250.747H514.133V250.88H514.667V251.014H515.067V251.147H515.467V251.28H516V251.414H516.4V251.547H516.8V251.68H517.333V251.814H517.733V251.947H518.267V252.08H518.667V252.214H519.067V252.347H519.6V252.48H520V252.614H520.4V252.747H520.933V252.88H521.333V253.014H521.733V253.147H522.267V253.28H522.667V253.414H523.067V253.547H523.6V253.68H524V253.814H524.4V253.947H524.933V254.08H525.333V254.214H525.867V254.347H526.267V254.48H526.667V254.614H527.2V254.747H527.6V254.88H528V255.014H528.533V255.147H528.933V255.28H529.333V255.414H529.867V255.547H530.267V255.68H530.667V255.814H531.2V255.947H531.6V256.08H532V256.214H532.533V256.347H532.933V256.48H533.467V256.614H533.867V256.747H534.267V256.88H534.8V257.014H535.2V257.147H535.6V257.28H536.133V257.414H536.533V257.547H536.933V257.68H537.467V257.814H537.867V257.947H538.267V258.08H538.8V258.214H539.2V258.347H539.6V258.48H540.133V258.614H540.533V258.747H541.067V258.88H541.467V259.014H541.867V259.147H542.4V259.28H542.8V259.414H543.2V259.547H543.733V259.68H544.133V259.814H544.533V259.947H545.067V260.08H545.467V260.214H545.867V260.347H546.4V260.48H546.8V260.614H547.2V260.747H547.733V260.88H548.133V261.014H548.667V261.147H549.067V261.28H549.467V261.414H550V261.547H550.4V261.68H550.8V261.814H551.333V261.947H551.733V262.08H552.133V262.214H552.667V262.347H553.067V262.48H553.467V262.614H554V262.747H554.4V262.88H554.8V263.014H555.333V263.147H555.733V263.28H556.267V263.414H556.667V263.547H557.067V263.68H557.6V263.814H558V263.947H558.4V264.08H558.933V264.214H559.333V264.347H559.733V264.48H560.267V264.614H560.667V264.747H561.067V264.88H561.6V265.014H562V265.147H562.4V265.28H562.933V265.414H563.333V265.547H563.867V265.68H564.267V265.814H564.667V265.947H565.2V266.08H565.6V266.214H566V266.347H566.533V266.48H566.933V266.614H567.333V266.747H567.867V266.88H568.267V267.014H568.667V267.147H569.2V267.28H569.6V267.414H570V267.547H570.533V267.68H570.933V267.814H571.467V267.947H571.867V268.08H572.267V268.214H572.8V268.347H573.2V268.48H573.6V268.614H574.133V268.747H574.533V268.88H574.933V269.014H575.467V269.147H575.867V269.28H576.267V269.414H576.8V269.547H577.2V269.68H577.6V269.814H578.133V269.947H578.533V270.08H579.067V270.214H579.467V270.347H579.867V270.48H580.4V270.614H580.8V270.747H581.2V270.88H581.733V271.014H582.133V271.147H582.533V271.28H583.067V271.414H583.467V271.547H583.867V271.68H584.4V271.814H584.8V271.947H585.2V272.08H585.733V272.214H586.133V272.347H586.267V272.48H585.6V272.614H584.533V272.747H583.467V272.88H582.4V273.014H581.333V273.147H580.4V273.28H579.333V273.414H578.267V273.547H577.2V273.68H576.133V273.814H575.067V273.947H574V274.08H572.933V274.214H571.867V274.347H570.8V274.48H569.733V274.614H568.667V274.747H567.6V274.88H566.533V275.014H565.467V275.147H564.4V275.28H563.333V275.414H562.267V275.547H561.2V275.68H560.267V275.814H559.2V275.947H558.133V276.08H557.067V276.214H556V276.347H554.933V276.48H553.867V276.614H552.8V276.747H551.733V276.88H550.667V277.014H549.6V277.147H548.533V277.28H547.467V277.414H546.4V277.547H545.333V277.68H544.267V277.814H543.2V277.947H542.133V278.08H541.067V278.214H540.133V278.347H539.067V278.48H538V278.614H536.933V278.747H535.867V278.88H534.8V279.014H533.733V279.147H532.667V279.28H531.6V279.414H530.533V279.547H529.467V279.68H528.4V279.814H527.333V279.947H526.267V280.08H525.2V280.214H524.133V280.347H523.067V280.48H522V280.614H520.933V280.747H519.867V280.88H518.933V281.014H517.867V281.147H516.8V281.28H515.733V281.414H514.667V281.547H513.6V281.68H512.533V281.814H511.467V281.947H510.4V282.08H509.333V282.214H508.267V282.347H507.2V282.48H506.133V282.614H505.067V282.747H504V282.88H502.933V283.014H501.867V283.147H500.8V283.28H499.733V283.414H498.8V283.547H497.733V283.68H496.667V283.814H495.6V283.947H494.533V284.08H493.467V284.214H492.4V284.347H491.333V284.48H490.267V284.614H489.2V284.747H488.133V284.88H487.067V285.014H486V285.147H484.933V285.28H483.867V285.414H482.8V285.547H481.733V285.68H480.667V285.814H479.6V285.947H478.667V286.08H477.6V286.214H476.533V286.347H475.467V286.48H474.4V286.614H473.333V286.747H472.267V286.88H471.2V287.014H470.133V287.147H469.067V287.28H468V287.414H466.933V287.547" fill="url(#paint0_linear_1963_6857)"/>
</g>
<path fill-rule="evenodd" clip-rule="evenodd" d="M554.061 38.792V238.552L458.308 218.741V75.112L554.061 38.792ZM586.253 -0.00397139V272.395L445.101 230.297V60.2547L586.253 -0.00397139Z" fill="#656263"/>
<path fill-rule="evenodd" clip-rule="evenodd" d="M556.315 41.6094V241.37L460.563 221.559V77.9307L556.315 41.6094Z" fill="#231F20"/>
<mask id="mask1_1963_6857" style="mask-type:luminance" maskUnits="userSpaceOnUse" x="458" y="38" width="97" height="201">
<path d="M458.308 238.552H554.062V38.7918H458.308V238.552Z" fill="white"/>
</mask>
<g mask="url(#mask1_1963_6857)">
<path d="M553.6 238.613V238.48H553.067V238.347H552.4V238.213H551.733V238.08H551.067V237.947H550.4V237.813H549.733V237.68H549.2V237.547H548.533V237.413H547.867V237.28H547.2V237.147H546.533V237.013H545.867V236.88H545.333V236.747H544.667V236.613H544V236.48H543.333V236.347H542.667V236.213H542V236.08H541.467V235.947H540.8V235.813H540.133V235.68H539.467V235.547H538.8V235.413H538.133V235.28H537.6V235.147H536.933V235.013H536.267V234.88H535.6V234.747H534.933V234.613H534.267V234.48H533.733V234.347H533.067V234.213H532.4V234.08H531.733V233.947H531.067V233.813H530.4V233.68H529.867V233.547H529.2V233.413H528.533V233.28H527.867V233.147H527.2V233.013H526.533V232.88H526V232.747H525.333V232.613H524.667V232.48H524V232.347H523.333V232.213H522.667V232.08H522.133V231.947H521.467V231.813H520.8V231.68H520.133V231.547H519.467V231.413H518.8V231.28H518.267V231.147H517.6V231.013H516.933V230.88H516.267V230.747H515.6V230.613H514.933V230.48H514.4V230.347H513.733V230.213H513.067V230.08H512.4V229.947H511.733V229.813H511.067V229.68H510.533V229.547H509.867V229.413H509.2V229.28H508.533V229.147H507.867V229.013H507.2V228.88H506.667V228.747H506V228.613H505.333V228.48H504.667V228.347H504V228.213H503.333V228.08H502.8V227.947H502.133V227.813H501.467V227.68H500.8V227.547H500.133V227.413H499.467V227.28H498.933V227.147H498.267V227.013H497.6V226.88H496.933V226.747H496.267V226.613H495.6V226.48H495.067V226.347H494.4V226.213H493.733V226.08H493.067V225.947H492.4V225.813H491.733V225.68H491.2V225.547H490.533V225.413H489.867V225.28H489.2V225.147H488.533V225.013H487.867V224.88H487.333V224.747H486.667V224.613H486V224.48H485.333V224.347H484.667V224.213H484V224.08H483.467V223.947H482.8V223.813H482.133V223.68H481.467V223.547H480.8V223.413H480.133V223.28H479.6V223.147H478.933V223.013H478.267V222.88H477.6V222.747H476.933V222.613H476.267V222.48H475.733V222.347H475.067V222.213H474.4V222.08H473.733V221.947H473.067V221.813H472.4V221.68H471.867V221.547H471.2V221.413H470.533V221.28H469.867V221.147H469.2V221.013H468.533V220.88H468V220.747H467.333V220.613H466.667V220.48H466V220.347H465.333V220.213H464.667V220.08H464.133V219.947H463.467V219.813H462.8V219.68H462.133V219.547H461.467V219.413H460.8V219.28H460.267V219.147H459.6V219.013H458.933V218.88H458.267V75.0133H458.533V74.8799H458.8V74.7466H459.2V74.6133H459.6V74.4799H459.867V74.3466H460.267V74.2133H460.667V74.0799H460.933V73.9466H461.333V73.8133H461.6V73.6799H462V73.5466H462.4V73.4133H462.667V73.2799H463.067V73.1466H463.467V73.0133H463.733V72.8799H464.133V72.7466H464.533V72.6133H464.8V72.4799H465.2V72.3466H465.467V72.2133H465.867V72.0799H466.267V71.9466H466.533V71.8133H466.933V71.6799H467.333V71.5466H467.6V71.4133H468V71.2799H468.4V71.1466H468.667V71.0133H469.067V70.8799H469.333V70.7466H469.733V70.6133H470.133V70.4799H470.4V70.3466H470.8V70.2133H471.2V70.0799H471.467V69.9466H471.867V69.8133H472.267V69.6799H472.533V69.5466H472.933V69.4133H473.2V69.2799H473.6V69.1466H474V69.0133H474.267V68.8799H474.667V68.7466H475.067V68.6133H475.333V68.4799H475.733V68.3466H476.133V68.2133H476.4V68.0799H476.8V67.9466H477.067V67.8133H477.467V67.6799H477.867V67.5466H478.133V67.4133H478.533V67.2799H478.933V67.1466H479.2V67.0133H479.6V66.8799H480V66.7466H480.267V66.6133H480.667V66.4799H480.933V66.3466H481.333V66.2133H481.733V66.0799H482V65.9466H482.4V65.8133H482.8V65.6799H483.067V65.5466H483.467V65.4133H483.867V65.2799H484.133V65.1466H484.533V65.0133H484.8V64.8799H485.2V64.7466H485.6V64.6133H485.867V64.4799H486.267V64.3466H486.667V64.2133H486.933V64.0799H487.333V63.9466H487.733V63.8133H488V63.6799H488.4V63.5466H488.8V63.4133H489.067V63.2799H489.467V63.1466H489.733V63.0133H490.133V62.8799H490.533V62.7466H490.8V62.6133H491.2V62.4799H491.6V62.3466H491.867V62.2133H492.267V62.0799H492.667V61.9466H492.933V61.8133H493.333V61.6799H493.6V61.5466H494V61.4133H494.4V61.2799H494.667V61.1466H495.067V61.0133H495.467V60.8799H495.733V60.7466H496.133V60.6133H496.533V60.4799H496.8V60.3466H497.2V60.2133H497.467V60.0799H497.867V59.9466H498.267V59.8133H498.533V59.6799H498.933V59.5466H499.333V59.4133H499.6V59.2799H500V59.1466H500.4V59.0133H500.667V58.8799H501.067V58.7466H501.333V58.6133H501.733V58.4799H502.133V58.3466H502.4V58.2133H502.8V58.0799H503.2V57.9466H503.467V57.8133H503.867V57.6799H504.267V57.5466H504.533V57.4133H504.933V57.2799H505.2V57.1466H505.6V57.0133H506V56.8799H506.267V56.7466H506.667V56.6133H507.067V56.4799H507.333V56.3466H507.733V56.2133H508.133V56.0799H508.4V55.9466H508.8V55.8133H509.067V55.6799H509.467V55.5466H509.867V55.4133H510.133V55.2799H510.533V55.1466H510.933V55.0133H511.2V54.8799H511.6V54.7466H512V54.6133H512.267V54.4799H512.667V54.3466H512.933V54.2133H513.333V54.0799H513.733V53.9466H514V53.8133H514.4V53.6799H514.8V53.5466H515.067V53.4133H515.467V53.2799H515.867V53.1466H516.133V53.0133H516.533V52.8799H516.8V52.7466H517.2V52.6133H517.6V52.4799H517.867V52.3466H518.267V52.2133H518.667V52.0799H518.933V51.9466H519.333V51.8133H519.733V51.6799H520V51.5466H520.4V51.4133H520.667V51.2799H521.067V51.1466H521.467V51.0133H521.733V50.8799H522.133V50.7466H522.533V50.6133H522.8V50.4799H523.2V50.3466H523.6V50.2133H523.867V50.0799H524.267V49.9466H524.533V49.8133H524.933V49.6799H525.333V49.5466H525.6V49.4133H526V49.2799H526.4V49.1466H526.667V49.0133H527.067V48.8799H527.467V48.7466H527.733V48.6133H528.133V48.4799H528.4V48.3466H528.8V48.2133H529.2V48.0799H529.467V47.9466H529.867V47.8133H530.267V47.6799H530.533V47.5466H530.933V47.4133H531.333V47.2799H531.6V47.1466H532V47.0133H532.267V46.8799H532.667V46.7466H533.067V46.6133H533.333V46.4799H533.733V46.3466H534.133V46.2133H534.4V46.0799H534.8V45.9466H535.2V45.8133H535.467V45.6799H535.867V45.5466H536.133V45.4133H536.533V45.2799H536.933V45.1466H537.2V45.0133H537.6V44.8799H538V44.7466H538.267V44.6133H538.667V44.4799H539.067V44.3466H539.333V44.2133H539.733V44.0799H540V43.9466H540.4V43.8133H540.8V43.6799H541.067V43.5466H541.467V43.4133H541.867V43.2799H542.133V43.1466H542.533V43.0133H542.933V42.8799H543.2V42.7466H543.6V42.6133H543.867V42.4799H544.267V42.3466H544.667V42.2133H544.933V42.0799H545.333V41.9466H545.733V41.8133H546V41.6799H546.4V41.5466H546.8V41.4133H547.067V41.2799H547.467V41.1466H547.733V41.0133H548.133V40.8799H548.533V40.7466H548.8V40.6133H549.2V40.4799H549.6V40.3466H549.867V40.2133H550.267V40.0799H550.667V39.9466H550.933V39.8133H551.333V39.6799H551.6V39.5466H552V39.4133H552.4V39.2799H552.667V39.1466H553.067V39.0133H553.467V38.8799H553.733V38.7466H554.133V238.613" fill="url(#paint1_linear_1963_6857)"/>
</g>
<path fill-rule="evenodd" clip-rule="evenodd" d="M3.08125 260.347H0V236.812H4.57031L11.3078 256.841H11.3073L17.9839 236.812H20.2688H22.5541V260.347H21.0213H19.4729V240.431H19.4593L12.8214 260.347H11.2854H9.74844L3.08855 240.495H3.08125V260.347Z" fill="#656263"/>
<path fill-rule="evenodd" clip-rule="evenodd" d="M27.8953 260.347V236.812H31.0755V260.347H29.4932H27.8953Z" fill="#656263"/>
<path fill-rule="evenodd" clip-rule="evenodd" d="M36.8984 260.347V236.812H47.8401C50.3354 236.812 52.2328 237.352 53.5344 238.436C54.8354 239.517 55.486 241.104 55.486 243.195C55.486 245.252 54.8084 246.863 53.453 248.025C53.1114 248.313 52.7432 248.568 52.3484 248.792L52.876 249.049C54.3068 249.872 55.0478 251.256 55.1016 253.201L55.2297 257.497C55.2516 258.203 55.3417 258.711 55.5021 259.02C55.662 259.331 55.9713 259.599 56.4302 259.823V260.347H52.5136C52.4286 260.155 52.3432 259.652 52.2578 258.837C52.1724 258.025 52.1088 257.12 52.0656 256.124L51.9948 254.263C51.9521 252.796 51.5942 251.751 50.9224 251.124C50.2505 250.497 49.1516 250.185 47.626 250.185H40.0786V260.347H38.4969H36.8984ZM40.0786 247.432H47.951C49.4234 247.432 50.5005 247.109 51.1838 246.465C51.8666 245.823 52.2078 244.804 52.2078 243.409C52.2078 242.058 51.8473 241.068 51.1276 240.44C50.4078 239.813 49.2688 239.499 47.7114 239.499H40.0786V247.432Z" fill="#656263"/>
<path fill-rule="evenodd" clip-rule="evenodd" d="M60.5781 260.347V236.812H71.5193C74.014 236.812 75.9131 237.352 77.2136 238.436C78.514 239.517 79.1651 241.104 79.1651 243.195C79.1651 245.252 78.4875 246.863 77.1323 248.025C76.7907 248.313 76.4224 248.568 76.0281 248.792L76.5563 249.049C77.986 249.872 78.7281 251.256 78.7812 253.201L78.9088 257.497C78.9303 258.203 79.0213 258.711 79.1807 259.02C79.3412 259.331 79.6511 259.599 80.1093 259.823V260.347H76.1927C76.1073 260.155 76.0224 259.652 75.9369 258.837C75.8516 258.025 75.7875 257.12 75.7448 256.124L75.674 254.263C75.6312 252.796 75.274 251.751 74.6016 251.124C73.9297 250.497 72.8312 250.185 71.3063 250.185H63.7579V260.347H62.1755H60.5781ZM63.7579 247.432H71.6303C73.1027 247.432 74.1797 247.109 74.8625 246.465C75.5459 245.823 75.8864 244.804 75.8864 243.409C75.8864 242.058 75.5265 241.068 74.8073 240.44C74.0869 239.813 72.9479 239.499 71.3907 239.499H63.7579V247.432Z" fill="#656263"/>
<path fill-rule="evenodd" clip-rule="evenodd" d="M94.1167 261.001C90.7005 261.001 87.9355 259.861 85.8213 257.58C83.7079 255.299 82.6511 252.304 82.6511 248.596C82.6511 244.877 83.7079 241.873 85.8213 239.587C87.9355 237.299 90.7005 236.156 94.1167 236.156C97.5541 236.156 100.327 237.299 102.435 239.587C104.544 241.873 105.597 244.877 105.597 248.596C105.597 252.304 104.544 255.299 102.435 257.58C100.327 259.861 97.5541 261.001 94.1167 261.001ZM94.1167 258.184C96.5729 258.184 98.5547 257.301 100.061 255.539C101.566 253.773 102.32 251.46 102.32 248.596C102.32 245.72 101.566 243.397 100.061 241.628C98.5547 239.859 96.5729 238.975 94.1167 238.975C91.6703 238.975 89.6937 239.859 88.188 241.628C86.6823 243.397 85.9292 245.72 85.9292 248.596C85.9292 251.46 86.6823 253.773 88.188 255.539C89.6937 257.301 91.6703 258.184 94.1167 258.184Z" fill="#656263"/>
<path fill-rule="evenodd" clip-rule="evenodd" d="M109.713 260.347V236.812H120.654C123.149 236.812 125.047 237.352 126.348 238.436C127.649 239.517 128.3 241.104 128.3 243.195C128.3 245.252 127.622 246.863 126.267 248.025C125.925 248.313 125.557 248.568 125.163 248.792L125.691 249.049C127.121 249.872 127.863 251.256 127.915 253.201L128.044 257.497C128.065 258.203 128.156 258.711 128.316 259.02C128.476 259.331 128.786 259.599 129.245 259.823V260.347H125.328C125.242 260.155 125.157 259.652 125.071 258.837C124.986 258.025 124.922 257.12 124.88 256.124L124.808 254.263C124.766 252.796 124.409 251.751 123.736 251.124C123.065 250.497 121.966 250.185 120.441 250.185H112.893V260.347H111.311H109.713ZM112.893 247.432H120.766C122.237 247.432 123.315 247.109 123.997 246.465C124.68 245.823 125.022 244.804 125.022 243.409C125.022 242.058 124.661 241.068 123.942 240.44C123.221 239.813 122.083 239.499 120.525 239.499H112.893V247.432Z" fill="#656263"/>
<path fill-rule="evenodd" clip-rule="evenodd" d="M147.353 243.63C147.215 242.143 146.629 240.995 145.596 240.187C144.563 239.379 143.175 238.975 141.431 238.975C139.633 238.975 138.269 239.323 137.339 240.018C136.408 240.712 135.943 241.727 135.943 243.063C135.943 243.972 136.252 244.652 136.871 245.1C137.491 245.549 138.735 245.994 140.604 246.432L144.707 247.408C146.908 247.933 148.477 248.708 149.417 249.733C150.361 250.749 150.832 252.185 150.832 254.047C150.832 256.183 150.024 257.877 148.407 259.127C146.791 260.377 144.6 261.001 141.835 261.001C138.761 261.001 136.361 260.282 134.632 258.842C132.946 257.424 132.103 255.482 132.103 253.016V252.84H135.02C135.075 254.547 135.695 255.864 136.881 256.791C138.068 257.719 139.72 258.184 141.836 258.184C143.793 258.184 145.279 257.847 146.295 257.173C147.309 256.499 147.817 255.511 147.817 254.207C147.817 253.073 147.484 252.235 146.817 251.689C146.153 251.156 144.817 250.648 142.807 250.166L138.699 249.188C136.625 248.696 135.144 248.012 134.256 247.136C133.375 246.26 132.933 245.047 132.933 243.496C132.933 241.243 133.699 239.455 135.231 238.136C136.761 236.816 138.829 236.156 141.433 236.156C144.081 236.156 146.189 236.819 147.757 238.145C149.327 239.471 150.164 241.299 150.271 243.63H147.353Z" fill="#656263"/>
<path fill-rule="evenodd" clip-rule="evenodd" d="M165.635 242.272C165.635 240.671 166.163 239.377 167.22 238.389C168.276 237.403 169.664 236.909 171.383 236.909C172.963 236.909 174.24 237.373 175.217 238.301C176.193 239.228 176.681 240.449 176.681 241.964C176.681 243.041 176.179 244.165 175.173 245.339C174.403 246.245 173.435 247.051 172.269 247.754L176.343 252.74L176.68 253.156L176.759 252.996C177.247 251.78 177.548 250.559 177.665 249.332H180.223C180.084 250.889 179.708 252.436 179.093 253.972C178.903 254.463 178.696 254.916 178.473 255.33L182.583 260.347H178.968L176.824 257.789C175.841 258.801 174.772 259.566 173.615 260.089C172.456 260.611 171.189 260.872 169.812 260.872C167.741 260.872 166.069 260.301 164.793 259.161C163.519 258.02 162.881 256.523 162.881 254.668C162.881 252.93 163.383 251.442 164.385 250.208C165.175 249.237 166.429 248.257 168.147 247.265L167.987 247.089C167.283 246.235 166.715 245.366 166.283 244.482C165.851 243.594 165.635 242.859 165.635 242.272ZM170.084 258.311C170.916 258.311 171.779 258.094 172.675 257.663C173.572 257.229 174.34 256.666 174.98 255.973L175.139 255.797L173.445 253.737L169.723 249.203C168.653 249.84 167.793 250.506 167.141 251.2C166.2 252.212 165.731 253.261 165.731 254.347C165.731 255.53 166.131 256.489 166.931 257.223C167.731 257.948 168.781 258.311 170.084 258.311ZM168.484 241.804C168.484 242.165 168.639 242.648 168.947 243.249C169.256 243.852 169.661 244.466 170.161 245.096L170.816 245.911C171.523 245.441 172.137 244.94 172.661 244.408C173.443 243.588 173.833 242.805 173.833 242.059C173.833 241.249 173.587 240.597 173.096 240.103C172.605 239.606 171.959 239.359 171.159 239.359C170.359 239.359 169.712 239.583 169.221 240.03C168.729 240.477 168.484 241.068 168.484 241.804Z" fill="#656263"/>
<path fill-rule="evenodd" clip-rule="evenodd" d="M209.216 243.63C209.077 242.143 208.491 240.995 207.459 240.187C206.425 239.379 205.037 238.975 203.293 238.975C201.496 238.975 200.132 239.323 199.201 240.018C198.271 240.712 197.805 241.727 197.805 243.063C197.805 243.972 198.115 244.652 198.733 245.1C199.353 245.549 200.597 245.994 202.467 246.432L206.569 247.408C208.771 247.933 210.34 248.708 211.28 249.733C212.223 250.749 212.695 252.185 212.695 254.047C212.695 256.183 211.887 257.877 210.269 259.127C208.652 260.377 206.463 261.001 203.697 261.001C200.624 261.001 198.223 260.282 196.495 258.842C194.808 257.424 193.965 255.482 193.965 253.016V252.84H196.883C196.936 254.547 197.556 255.864 198.743 256.791C199.929 257.719 201.581 258.184 203.699 258.184C205.655 258.184 207.141 257.847 208.157 257.173C209.172 256.499 209.68 255.511 209.68 254.207C209.68 253.073 209.347 252.235 208.68 251.689C208.016 251.156 206.68 250.648 204.669 250.166L200.561 249.188C198.488 248.696 197.007 248.012 196.119 247.136C195.236 246.26 194.796 245.047 194.796 243.496C194.796 241.243 195.561 239.455 197.092 238.136C198.624 236.816 200.692 236.156 203.296 236.156C205.944 236.156 208.052 236.819 209.62 238.145C211.189 239.471 212.027 241.299 212.133 243.63H209.216Z" fill="#656263"/>
<path fill-rule="evenodd" clip-rule="evenodd" d="M219.673 260.347H216.592V236.812H221.163L227.9 256.841L234.576 236.812H236.861H239.145V260.347H237.613H236.064V240.431H236.052L229.415 260.347H227.877H226.34L219.681 240.495H219.673V260.347Z" fill="#656263"/>
<path fill-rule="evenodd" clip-rule="evenodd" d="M241.964 260.347L250.847 236.812H254.485L262.937 260.347H261.228H259.519L257.121 253.529H247.72L245.249 260.347H243.613H241.964ZM252.519 240.271L248.733 250.711H256.143L252.513 240.271H252.519Z" fill="#656263"/>
<path fill-rule="evenodd" clip-rule="evenodd" d="M266.219 260.347V236.812H277.16C279.655 236.812 281.553 237.352 282.855 238.436C284.155 239.517 284.805 241.104 284.805 243.195C284.805 245.252 284.128 246.863 282.773 248.025C282.431 248.313 282.063 248.568 281.668 248.792L282.196 249.049C283.627 249.872 284.368 251.256 284.421 253.201L284.549 257.497C284.571 258.203 284.663 258.711 284.821 259.02C284.981 259.331 285.292 259.599 285.751 259.823V260.347H281.833C281.748 260.155 281.663 259.652 281.577 258.837C281.492 258.025 281.428 257.12 281.385 256.124L281.315 254.263C281.272 252.796 280.915 251.751 280.243 251.124C279.571 250.497 278.472 250.185 276.947 250.185H269.399V260.347H267.816H266.219ZM269.399 247.432H277.271C278.744 247.432 279.82 247.109 280.503 246.465C281.187 245.823 281.528 244.804 281.528 243.409C281.528 242.058 281.168 241.068 280.448 240.44C279.728 239.813 278.588 239.499 277.031 239.499H269.399V247.432Z" fill="#656263"/>
<path fill-rule="evenodd" clip-rule="evenodd" d="M295.437 260.347V239.631H287.472V236.812H306.584V238.22V239.631H298.617V260.347H297.036H295.437Z" fill="#656263"/>
<path fill-rule="evenodd" clip-rule="evenodd" d="M328.619 261.001C325.353 261.001 322.711 259.861 320.695 257.58C318.676 255.299 317.668 252.304 317.668 248.596C317.668 244.877 318.697 241.873 320.759 239.587C322.819 237.299 325.516 236.156 328.848 236.156C331.42 236.156 333.635 236.877 335.487 238.318C337.34 239.759 338.425 241.607 338.747 243.859H335.665C335.365 242.3 334.608 241.097 333.391 240.248C332.173 239.399 330.592 238.975 328.649 238.975C326.355 238.975 324.496 239.866 323.076 241.645C321.655 243.425 320.945 245.759 320.945 248.644C320.945 251.713 321.631 254.085 323.001 255.764C324.371 257.442 326.305 258.282 328.801 258.282C331.221 258.282 333.179 257.395 334.672 255.623C334.907 255.345 335.12 255.052 335.312 254.743C335.568 254.327 335.784 253.744 335.96 252.996C336.137 252.249 336.224 251.54 336.224 250.867V250.579H328.883V247.891H339.169V260.347H337.184L336.416 257.385L336.239 257.595C334.307 259.867 331.767 261.001 328.619 261.001Z" fill="#656263"/>
<path fill-rule="evenodd" clip-rule="evenodd" d="M344.04 260.347V236.812H347.221V257.528H359.153V258.937V260.347H344.04Z" fill="#656263"/>
<path fill-rule="evenodd" clip-rule="evenodd" d="M360.212 260.347L369.096 236.812H372.735L381.187 260.347H379.476H377.767L375.369 253.529H365.969L363.497 260.347H361.863H360.212ZM370.767 240.271L366.981 250.711H374.392L370.761 240.271H370.767Z" fill="#656263"/>
<path fill-rule="evenodd" clip-rule="evenodd" d="M398.428 243.63C398.291 242.143 397.704 240.995 396.671 240.187C395.639 239.379 394.251 238.975 392.507 238.975C390.709 238.975 389.345 239.323 388.415 240.018C387.483 240.712 387.017 241.727 387.017 243.063C387.017 243.972 387.327 244.652 387.947 245.1C388.567 245.549 389.811 245.994 391.68 246.432L395.783 247.408C397.983 247.933 399.553 248.708 400.493 249.733C401.436 250.749 401.908 252.185 401.908 254.047C401.908 256.183 401.099 257.877 399.481 259.127C397.865 260.377 395.675 261.001 392.911 261.001C389.837 261.001 387.436 260.282 385.707 258.842C384.021 257.424 383.179 255.482 383.179 253.016V252.84H386.095C386.149 254.547 386.769 255.864 387.956 256.791C389.141 257.719 390.795 258.184 392.912 258.184C394.868 258.184 396.355 257.847 397.369 257.173C398.385 256.499 398.893 255.511 398.893 254.207C398.893 253.073 398.56 252.235 397.892 251.689C397.229 251.156 395.892 250.648 393.881 250.166L389.775 249.188C387.7 248.696 386.22 248.012 385.332 247.136C384.449 246.26 384.009 245.047 384.009 243.496C384.009 241.243 384.775 239.455 386.305 238.136C387.837 236.816 389.905 236.156 392.509 236.156C395.156 236.156 397.264 236.819 398.832 238.145C400.403 239.471 401.24 241.299 401.347 243.63H398.428Z" fill="#656263"/>
<path fill-rule="evenodd" clip-rule="evenodd" d="M420.257 243.63C420.119 242.143 419.532 240.995 418.501 240.187C417.468 239.379 416.08 238.975 414.336 238.975C412.537 238.975 411.175 239.323 410.244 240.018C409.312 240.712 408.848 241.727 408.848 243.063C408.848 243.972 409.156 244.652 409.776 245.1C410.396 245.549 411.639 245.994 413.509 246.432L417.612 247.408C419.812 247.933 421.383 248.708 422.323 249.733C423.265 250.749 423.737 252.185 423.737 254.047C423.737 256.183 422.928 257.877 421.311 259.127C419.695 260.377 417.504 261.001 414.741 261.001C411.667 261.001 409.265 260.282 407.536 258.842C405.851 257.424 405.008 255.482 405.008 253.016V252.84H407.925C407.977 254.547 408.599 255.864 409.785 256.791C410.972 257.719 412.624 258.184 414.741 258.184C416.697 258.184 418.184 257.847 419.199 257.173C420.215 256.499 420.723 255.511 420.723 254.207C420.723 253.073 420.389 252.235 419.723 251.689C419.059 251.156 417.723 250.648 415.711 250.166L411.604 249.188C409.529 248.696 408.048 248.012 407.16 247.136C406.279 246.26 405.837 245.047 405.837 243.496C405.837 241.243 406.603 239.455 408.136 238.136C409.667 236.816 411.735 236.156 414.339 236.156C416.985 236.156 419.093 236.819 420.663 238.145C422.231 239.471 423.069 241.299 423.176 243.63H420.257Z" fill="#656263"/>
</g>
<defs>
<linearGradient id="paint0_linear_1963_6857" x1="528.773" y1="232.88" x2="480.773" y2="299.547" gradientUnits="userSpaceOnUse">
<stop stop-color="#BDBCBC"/>
<stop offset="1" stop-color="white"/>
</linearGradient>
<linearGradient id="paint1_linear_1963_6857" x1="578.107" y1="219.547" x2="460.773" y2="74.2133" gradientUnits="userSpaceOnUse">
<stop stop-color="#CCEFFC"/>
<stop offset="0.458709" stop-color="white"/>
<stop offset="0.793563" stop-color="#CCEFFC"/>
<stop offset="1" stop-color="#E6F7FD"/>
</linearGradient>
<clipPath id="clip0_1963_6857">
<rect width="586.253" height="287.547" fill="white"/>
</clipPath>
</defs>
</svg>
