<svg width="471" height="304" viewBox="0 0 471 304" fill="none" xmlns="http://www.w3.org/2000/svg">
<path d="M172.534 251.463H196.927V260.254H162.806V209.43H172.533V251.463H172.534ZM210.012 219.33V209.43H219.267V219.33H210.012ZM210.012 260.254V222.569H219.267V260.254H210.012ZM257.652 257.703C255.195 259.427 252.386 260.254 249.308 260.254C244.239 260.254 239.801 258.565 236.613 254.514C233.561 250.648 232.213 246.11 232.213 241.217C232.213 237.842 232.836 234.544 234.207 231.451C235.52 228.516 237.48 226.061 240.195 224.307C242.956 222.536 246.081 221.781 249.342 221.781C252.603 221.781 255.646 222.703 258.232 224.627V222.569H267.014V253.989C267.014 257.664 266.802 262.828 265.135 266.136C263.783 268.788 261.672 270.756 259.051 272.134C256.031 273.723 252.585 274.269 249.203 274.269C245.249 274.269 241.211 273.512 237.925 271.196C234.642 268.894 233.338 265.413 233.435 261.496L233.479 259.718L242.338 260.981L242.501 262.162C242.648 263.221 243.012 264.283 243.909 264.932C245.387 265.985 247.397 266.256 249.169 266.256C250.94 266.256 253.237 266.011 254.782 264.926C256.074 264.011 256.85 262.762 257.271 261.254C257.545 260.236 257.625 258.916 257.651 257.704L257.652 257.703ZM291.476 224.579C294.172 222.67 297.268 221.781 300.643 221.781C303.29 221.781 305.916 222.255 308.283 223.474C310.434 224.57 312.16 226.18 313.202 228.378C314.379 230.859 314.623 234.071 314.623 236.79V260.254H305.369V236.79C305.369 235.068 305.123 232.807 303.853 231.521C302.673 230.326 301.009 229.983 299.385 229.983C297.846 229.983 296.416 230.376 295.078 231.132C293.859 231.82 292.919 232.759 292.357 234.055C291.617 235.719 291.476 237.98 291.476 239.785V260.253H282.233V209.429H291.476V224.578L291.476 224.579ZM331.018 230.282H326.555V222.569H331.018V214.683L340.239 209.344V222.569H346.352V230.282H340.239V248.885C340.239 249.379 340.239 251.056 340.409 251.449C340.5 251.648 340.629 251.768 340.81 251.876C341.125 252.057 341.736 252.085 342.092 252.085C342.91 252.085 343.74 251.981 344.548 251.868L346.072 251.654L347.462 259.853L345.958 260.156C344.349 260.481 342.699 260.709 341.055 260.709C339.083 260.709 336.896 260.471 335.147 259.503C333.725 258.721 332.582 257.609 331.909 256.12C331.04 254.214 331.018 250.682 331.018 248.563V230.282H331.018ZM358.352 219.33V209.43H367.607V219.33H358.352ZM358.352 260.254V222.569H367.607V260.254H358.352ZM391.526 225.013C394.313 222.745 397.69 221.78 401.362 221.78C403.618 221.78 405.836 222.161 407.929 223.021C409.765 223.781 411.471 224.871 412.662 226.486C413.765 227.95 414.452 229.643 414.848 231.431C415.232 233.337 415.215 235.499 415.215 237.443V260.253H405.96V237.665C405.96 236.235 405.901 234.237 405.37 232.906C405.007 232.002 404.359 231.351 403.525 230.864C402.471 230.246 401.293 230.015 400.081 230.015C397.932 230.015 396.043 230.639 394.388 232.018C392.416 233.682 392.137 237.415 392.137 239.818V260.253H382.893V222.568H391.526V225.013H391.526ZM453.671 257.703C451.214 259.427 448.404 260.254 445.327 260.254C440.258 260.254 435.82 258.565 432.632 254.514C429.579 250.648 428.232 246.11 428.232 241.217C428.232 237.842 428.855 234.544 430.226 231.451C431.539 228.516 433.499 226.061 436.213 224.307C438.974 222.535 442.1 221.781 445.361 221.781C448.622 221.781 451.665 222.703 454.25 224.627V222.569H463.032V253.989C463.032 257.664 462.822 262.828 461.154 266.136C459.802 268.788 457.691 270.756 455.07 272.134C452.05 273.723 448.604 274.269 445.222 274.269C441.268 274.269 437.231 273.512 433.944 271.196C430.662 268.894 429.357 265.412 429.454 261.496L429.498 259.718L438.358 260.981L438.521 262.162C438.668 263.221 439.032 264.283 439.929 264.932C441.406 265.985 443.417 266.256 445.188 266.256C446.959 266.256 449.256 266.011 450.802 264.926C452.093 264.011 452.87 262.762 453.291 261.254C453.565 260.237 453.644 258.916 453.671 257.704L453.671 257.703ZM241.63 240.795C241.63 243.675 242.021 247.42 244.038 249.647C245.612 251.404 247.53 252.24 249.885 252.24C252.24 252.24 254.153 251.391 255.739 249.66C257.753 247.451 258.163 243.852 258.163 240.983C258.163 238.115 257.686 234.724 255.657 232.494C254.068 230.748 252.16 229.794 249.78 229.794C247.4 229.794 245.605 230.723 244.061 232.442C242.09 234.638 241.629 237.952 241.629 240.795H241.63ZM437.648 240.795C437.648 243.675 438.04 247.42 440.057 249.647C441.63 251.404 443.548 252.24 445.903 252.24C448.257 252.24 450.171 251.391 451.758 249.66C453.772 247.451 454.181 243.852 454.181 240.983C454.181 238.115 453.704 234.724 451.675 232.494C450.086 230.748 448.179 229.794 445.799 229.794C443.419 229.794 441.624 230.723 440.081 232.442C438.11 234.638 437.648 237.952 437.648 240.795Z" fill="#8DC63F"/>
<path d="M167.511 290.235L169.862 290.831L169.807 291.045C169.438 292.492 168.751 293.814 167.567 294.756C166.418 295.664 165.064 296.038 163.608 296.038C162.252 296.038 160.845 295.803 159.689 295.054C158.621 294.358 157.874 293.369 157.379 292.2C156.847 290.938 156.597 289.607 156.597 288.239C156.597 286.871 156.841 285.453 157.483 284.203C158.067 283.066 158.908 282.171 160.029 281.556C161.149 280.942 162.362 280.658 163.638 280.658C165.005 280.658 166.311 280.979 167.417 281.806C168.503 282.617 169.182 283.731 169.556 285.026L169.621 285.249L167.314 285.794L167.252 285.599C166.99 284.778 166.573 283.941 165.87 283.411C165.21 282.912 164.414 282.736 163.598 282.736C162.651 282.736 161.727 282.936 160.945 283.492C160.226 284.008 159.736 284.688 159.455 285.529C159.159 286.403 159.012 287.307 159.012 288.229C159.012 289.29 159.146 290.374 159.532 291.367C159.853 292.182 160.356 292.859 161.112 293.313C161.833 293.745 162.613 293.96 163.454 293.96C164.413 293.96 165.288 293.702 166.03 293.087C166.829 292.421 167.247 291.455 167.463 290.459L167.511 290.235V290.235ZM180.904 295.12C179.779 295.737 178.572 296.039 177.289 296.039C176.005 296.039 174.673 295.727 173.526 295.021C172.415 294.342 171.575 293.41 171.007 292.238C170.44 291.073 170.157 289.833 170.157 288.536C170.157 286.414 170.652 284.327 172.149 282.753C173.538 281.292 175.294 280.649 177.299 280.649C178.623 280.649 179.879 280.959 181.019 281.636C182.135 282.303 182.978 283.229 183.553 284.395C184.166 285.636 184.417 286.991 184.417 288.368C184.417 289.745 184.152 291.145 183.507 292.401C182.911 293.567 182.053 294.489 180.904 295.121L180.904 295.12ZM172.572 288.566C172.572 290.015 172.902 291.442 173.915 292.528C174.825 293.501 175.948 293.961 177.279 293.961C178.609 293.961 179.758 293.508 180.668 292.516C181.702 291.388 182.006 289.843 182.006 288.357C182.006 287.337 181.849 286.306 181.427 285.371C181.061 284.561 180.519 283.902 179.768 283.425C179.018 282.954 178.195 282.736 177.31 282.736C176.015 282.736 174.904 283.176 173.967 284.071C172.809 285.173 172.573 287.051 172.573 288.565L172.572 288.566ZM192.605 292.755C192.786 292.203 192.974 291.653 193.162 291.104L196.672 280.905H199.625V295.793H197.338V284.794L193.519 295.793H191.478L187.679 284.615V295.793H185.393V280.905H188.653L192.122 291.284C192.284 291.773 192.449 292.263 192.605 292.755ZM203.634 289.921V295.793H201.281V280.905H206.952C207.673 280.905 208.477 280.918 209.186 281.045C209.851 281.156 210.503 281.371 211.061 281.758C211.603 282.131 212.003 282.648 212.291 283.235C212.608 283.885 212.751 284.582 212.751 285.303C212.751 286.546 212.365 287.656 211.522 288.575C210.47 289.713 208.579 289.921 207.12 289.921H203.635L203.634 289.921ZM203.634 287.773H207.15C207.927 287.773 209.023 287.683 209.634 287.139C210.155 286.677 210.337 286.047 210.337 285.364C210.337 284.85 210.221 284.361 209.92 283.939C209.646 283.553 209.291 283.299 208.837 283.173C208.357 283.048 207.606 283.053 207.11 283.053H203.634V287.773ZM216.033 293.645H223.148V295.793H213.676V280.905H216.033V293.645V293.645ZM226.39 283.053V287.032H234.384V289.17H226.39V293.644H235.262V295.793H224.037V280.905H234.925V283.053H226.39ZM240.15 283.053H235.39V280.905H247.285V283.053H242.504V295.793H240.15V283.053ZM250.21 283.053V287.032H258.203V289.17H250.21V293.644H259.081V295.793H247.856V280.905H258.745V283.053H250.21H250.21ZM267.055 293.645H274.17V295.793H264.698V280.905H267.055V293.645V293.645ZM275.344 295.793V280.905H277.698V295.793H275.344ZM290.646 292.494V290.126H286.401V287.992L292.963 287.981V293.667L292.88 293.733C291.98 294.452 290.992 295.049 289.913 295.459C288.9 295.842 287.843 296.038 286.76 296.038C285.367 296.038 284.024 295.751 282.789 295.102C281.596 294.479 280.684 293.568 280.067 292.373C279.431 291.139 279.154 289.802 279.154 288.418C279.154 287.034 279.447 285.656 280.061 284.387C280.641 283.176 281.502 282.209 282.692 281.57C283.907 280.922 285.243 280.66 286.611 280.66C287.607 280.66 288.599 280.81 289.526 281.183C290.333 281.505 291.061 281.978 291.602 282.664C292.165 283.373 292.514 284.241 292.74 285.11L292.794 285.321L290.649 285.911L290.587 285.703C290.418 285.134 290.178 284.516 289.816 284.04C289.484 283.607 289.021 283.309 288.523 283.1C287.92 282.845 287.273 282.737 286.621 282.737C285.885 282.737 285.123 282.835 284.439 283.12C283.886 283.351 283.378 283.669 282.974 284.114C282.608 284.52 282.314 284.975 282.103 285.479C281.732 286.379 281.568 287.329 281.568 288.3C281.568 289.362 281.721 290.476 282.21 291.431C282.626 292.243 283.231 292.859 284.049 293.264C284.868 293.67 285.733 293.873 286.648 293.873C287.458 293.873 288.24 293.713 288.991 293.408C289.55 293.184 290.175 292.887 290.645 292.493L290.646 292.494ZM296.767 286.837H303.833V280.905H306.19V295.793H303.833V288.985H296.767V295.793H294.41V280.905H296.767V286.837ZM311.62 283.053H306.86V280.905H318.754V283.053H313.974V295.793H311.62V283.053ZM319.612 295.793V280.905H321.965V295.793H319.612ZM333.438 291.738V280.905H335.714V295.793H333.413L326.164 284.951V295.793H323.887V280.905H326.189L333.438 291.738H333.438ZM348.504 292.494V290.126H344.259V287.992L350.821 287.981V293.667L350.738 293.733C349.838 294.452 348.85 295.049 347.771 295.459C346.757 295.842 345.701 296.038 344.618 296.038C343.225 296.038 341.882 295.751 340.647 295.102C339.454 294.479 338.542 293.568 337.925 292.373C337.289 291.139 337.012 289.802 337.012 288.418C337.012 287.034 337.305 285.656 337.919 284.387C338.499 283.176 339.36 282.209 340.55 281.57C341.765 280.922 343.101 280.66 344.469 280.66C345.465 280.66 346.457 280.81 347.385 281.183C348.191 281.505 348.919 281.978 349.461 282.664C350.024 283.373 350.373 284.241 350.598 285.11L350.653 285.321L348.507 285.911L348.445 285.703C348.277 285.134 348.036 284.516 347.675 284.04C347.343 283.607 346.88 283.309 346.382 283.1C345.779 282.845 345.132 282.737 344.48 282.737C343.744 282.737 342.981 282.835 342.298 283.12C341.745 283.351 341.238 283.669 340.833 284.114C340.467 284.52 340.173 284.975 339.962 285.479C339.592 286.379 339.427 287.329 339.427 288.3C339.427 289.362 339.58 290.476 340.069 291.431C340.484 292.243 341.09 292.859 341.907 293.264C342.726 293.67 343.592 293.873 344.507 293.873C345.317 293.873 346.099 293.713 346.85 293.408C347.409 293.184 348.034 292.887 348.504 292.493L348.504 292.494ZM356.043 290.728L358.268 290.533L358.292 290.747C358.36 291.333 358.518 291.933 358.851 292.428C359.179 292.913 359.681 293.242 360.21 293.472C360.882 293.765 361.608 293.88 362.338 293.88C362.965 293.88 363.601 293.799 364.188 293.573C364.628 293.401 365.057 293.147 365.337 292.759C365.576 292.425 365.706 292.061 365.706 291.65C365.706 291.239 365.598 290.909 365.356 290.599C365.069 290.228 364.581 289.981 364.152 289.818C363.393 289.524 362.401 289.312 361.607 289.121C360.733 288.91 359.56 288.623 358.767 288.2C358.117 287.861 357.535 287.401 357.138 286.777C356.771 286.193 356.599 285.549 356.599 284.859C356.599 284.076 356.825 283.352 357.254 282.697C357.719 281.983 358.386 281.492 359.168 281.166C360.04 280.81 360.964 280.659 361.903 280.659C362.902 280.659 363.902 280.804 364.825 281.194C365.639 281.535 366.325 282.057 366.812 282.797C367.284 283.519 367.523 284.325 367.557 285.186L367.566 285.4L365.306 285.57L365.283 285.357C365.2 284.62 364.948 283.916 364.36 283.436C363.719 282.909 362.785 282.787 361.984 282.787C361.182 282.787 360.213 282.878 359.592 283.374C359.155 283.725 358.881 284.162 358.881 284.731C358.881 285.178 359.035 285.55 359.371 285.849C359.865 286.299 361.51 286.681 362.154 286.826C363.152 287.053 364.464 287.34 365.397 287.763C366.158 288.116 366.875 288.61 367.351 289.314C367.792 289.968 367.988 290.706 367.988 291.493C367.988 292.324 367.745 293.088 367.293 293.786C366.804 294.539 366.114 295.079 365.302 295.454C364.396 295.868 363.419 296.039 362.427 296.039C361.297 296.039 360.097 295.903 359.053 295.449C358.15 295.061 357.414 294.47 356.874 293.648C356.336 292.829 356.071 291.914 356.047 290.936L356.042 290.728H356.043ZM379.338 295.12C378.213 295.737 377.006 296.039 375.722 296.039C374.439 296.039 373.107 295.727 371.96 295.021C370.849 294.342 370.01 293.41 369.441 292.238C368.874 291.073 368.591 289.833 368.591 288.536C368.591 286.414 369.086 284.327 370.584 282.753C371.973 281.292 373.728 280.649 375.733 280.649C377.058 280.649 378.313 280.959 379.453 281.636C380.569 282.303 381.413 283.229 381.987 284.395C382.6 285.636 382.851 286.991 382.851 288.368C382.851 289.745 382.586 291.145 381.942 292.401C381.345 293.567 380.487 294.489 379.338 295.121V295.12ZM371.007 288.566C371.007 290.015 371.337 291.442 372.349 292.528C373.26 293.501 374.383 293.961 375.713 293.961C377.043 293.961 378.193 293.508 379.102 292.516C380.136 291.388 380.44 289.843 380.44 288.357C380.44 287.337 380.284 286.306 379.861 285.371C379.495 284.561 378.953 283.902 378.202 283.425C377.452 282.954 376.629 282.736 375.744 282.736C374.449 282.736 373.338 283.176 372.402 284.071C371.243 285.173 371.007 287.051 371.007 288.565L371.007 288.566ZM386.164 293.645H393.278V295.793H383.806V280.905H386.164V293.645V293.645ZM403.607 280.905H405.964V289.474C405.964 290.617 405.869 291.934 405.454 293.011C405.091 293.953 404.439 294.669 403.586 295.2C402.555 295.847 401.291 296.038 400.094 296.038C398.897 296.038 397.696 295.873 396.668 295.312C395.771 294.829 395.116 294.119 394.726 293.178C394.259 292.063 394.157 290.671 394.157 289.474V280.905H396.511V289.465C396.511 290.269 396.549 291.399 396.846 292.156C397.062 292.709 397.435 293.124 397.95 293.419C398.549 293.759 399.245 293.874 399.926 293.874C400.884 293.874 402.079 293.725 402.772 292.986C403.516 292.191 403.607 290.486 403.607 289.465V280.905V280.905ZM411.394 283.053H406.634V280.905H418.528V283.053H413.748V295.793H411.394V283.053H411.394ZM419.386 295.793V280.905H421.739V295.793H419.386ZM433.846 295.12C432.721 295.737 431.513 296.039 430.23 296.039C428.947 296.039 427.615 295.727 426.467 295.021C425.356 294.342 424.517 293.41 423.948 292.238C423.381 291.073 423.098 289.833 423.098 288.536C423.098 286.414 423.593 284.327 425.091 282.753C426.479 281.292 428.235 280.649 430.24 280.649C431.564 280.649 432.82 280.959 433.961 281.636C435.077 282.303 435.919 283.229 436.495 284.395C437.108 285.636 437.359 286.991 437.359 288.368C437.359 289.745 437.094 291.145 436.449 292.401C435.853 293.567 434.995 294.489 433.846 295.121V295.12ZM425.513 288.566C425.513 290.015 425.843 291.442 426.856 292.528C427.767 293.501 428.89 293.961 430.22 293.961C431.55 293.961 432.7 293.508 433.609 292.516C434.643 291.388 434.947 289.843 434.947 288.357C434.947 287.337 434.79 286.306 434.367 285.371C434.002 284.561 433.459 283.902 432.708 283.425C431.958 282.954 431.135 282.736 430.25 282.736C428.955 282.736 427.844 283.176 426.907 284.071C425.749 285.173 425.513 287.051 425.513 288.565L425.513 288.566ZM447.925 291.738V280.905H450.202V295.793H447.9L440.651 284.951V295.793H438.374V280.905H440.676L447.926 291.738H447.925ZM451.33 290.728L453.555 290.533L453.58 290.747C453.648 291.333 453.806 291.933 454.139 292.428C454.466 292.913 454.968 293.242 455.497 293.472C456.169 293.765 456.895 293.88 457.625 293.88C458.252 293.88 458.888 293.799 459.476 293.573C459.915 293.401 460.344 293.147 460.624 292.759C460.863 292.425 460.993 292.061 460.993 291.65C460.993 291.239 460.885 290.909 460.643 290.599C460.356 290.228 459.869 289.981 459.439 289.818C458.68 289.524 457.688 289.312 456.894 289.121C456.02 288.91 454.847 288.623 454.054 288.2C453.404 287.861 452.821 287.401 452.425 286.777C452.057 286.193 451.886 285.549 451.886 284.859C451.886 284.076 452.112 283.352 452.541 282.697C453.005 281.983 453.673 281.492 454.455 281.166C455.327 280.81 456.251 280.659 457.19 280.659C458.188 280.659 459.188 280.804 460.112 281.194C460.926 281.535 461.612 282.057 462.099 282.797C462.57 283.519 462.81 284.325 462.844 285.186L462.853 285.4L460.593 285.57L460.569 285.357C460.487 284.62 460.235 283.916 459.646 283.436C459.006 282.909 458.072 282.787 457.27 282.787C456.469 282.787 455.5 282.878 454.879 283.374C454.442 283.725 454.168 284.162 454.168 284.731C454.168 285.178 454.322 285.55 454.657 285.849C455.152 286.299 456.796 286.681 457.44 286.826C458.438 287.053 459.751 287.34 460.683 287.763C461.444 288.116 462.162 288.61 462.638 289.314C463.078 289.968 463.274 290.706 463.274 291.493C463.274 292.324 463.032 293.088 462.579 293.786C462.09 294.539 461.4 295.079 460.589 295.454C459.683 295.868 458.706 296.039 457.714 296.039C456.584 296.039 455.383 295.903 454.34 295.449C453.437 295.061 452.701 294.47 452.16 293.648C451.622 292.829 451.357 291.914 451.333 290.936L451.328 290.728H451.33Z" fill="#A7A9AC"/>
<path d="M74.4656 202.829C74.4656 202.829 41.3666 188.582 39.1002 160.487C36.8338 132.392 42.2729 125.595 54.5106 112.68C66.7482 99.7659 99.836 101.351 112.074 99.1992C124.312 97.047 145.502 98.5194 158.986 79.2608C172.47 60.0021 158.873 19.6721 114.454 10.8355C85.9974 5.1746 56.4719 14.3454 36.1856 30.6027C-0.656519 60.1276 -1.09124 114.868 18.0241 154.143C22.523 163.387 27.9008 171.024 33.4963 177.289C51.2124 197.126 71.1198 203.224 72.2944 203.086L74.4656 202.829Z" fill="#8DC63F"/>
<path d="M67.6558 118.118H71.7348H88.5052H127.031V133.298H88.5052V145.08H123.179V160.26H88.5052V174.988H127.031V190.168H88.5052H71.7348H67.6558V118.118Z" fill="#2E3192"/>
<path d="M158.363 137.037C171.643 137.037 180.325 142.491 182.482 149.797L165.335 151.114C165.335 151.114 162.558 145.658 156.495 146.511C150.431 147.363 146.691 152.819 153.151 155.376C160.737 158.379 167.78 157.092 174.092 159.559C179.719 161.758 185.161 167.704 185.161 174.025C185.161 183.69 175.217 191.528 158.589 191.528C143.241 191.528 133.587 184.85 132.192 176.221L149.691 173.676C149.691 173.676 152.015 179.757 158.135 181.12C164.255 182.484 168.336 179.473 168.505 175.267C168.675 171.061 162.952 170.343 151.96 168.417C140.969 166.491 138.138 162.851 138.138 162.851C135.352 160.189 133.716 156.954 133.716 153.463C133.716 144.393 142.94 137.036 158.362 137.036L158.363 137.037Z" fill="#2E3192"/>
<path d="M213.377 120.497V138.962H224.935V151.65H213.83C213.83 151.65 213.556 173.391 213.669 174.471C213.783 175.551 214.463 178.222 218.429 178.393C222.397 178.563 224.04 177.54 224.04 177.54L225.4 189.36C225.4 189.36 205.509 192.827 199.786 186.973C194.062 181.12 195.875 168.163 195.875 165.151C195.875 162.14 195.934 151.795 195.934 151.795C195.934 151.795 188.49 152.141 188.398 151.795C188.305 151.449 188.398 139.066 188.398 139.066H196.388V129.179L213.376 120.497H213.377Z" fill="#2E3192"/>
<path d="M258.306 137.037C277.036 137.037 287.71 149.212 287.71 164.226C287.71 165.745 287.574 167.235 287.314 168.687H247.597C247.597 168.687 247.484 179.066 255.189 179.859C262.895 180.652 268.447 174.988 268.447 174.988L284.153 177.196C279.172 185.665 269.463 191.414 258.305 191.414C242.068 191.414 228.9 179.239 228.9 164.225C228.9 149.211 239.576 137.036 258.305 137.036L258.306 137.037ZM247.484 159.58H269.24C269.24 159.58 270.034 148.026 258.702 148.139C247.371 148.252 247.484 159.58 247.484 159.58Z" fill="#2E3192"/>
<path d="M312.186 119.023H294.736V188.582H312.186V119.023Z" fill="#2E3192"/>
<path d="M341.421 119.023H323.971V188.582H341.421V119.023Z" fill="#2E3192"/>
<path d="M377.738 137.037C396.467 137.037 407.143 149.212 407.143 164.226C407.143 165.745 407.006 167.235 406.746 168.687H367.03C367.03 168.687 366.917 179.066 374.622 179.859C382.327 180.652 387.879 174.988 387.879 174.988L403.586 177.196C398.605 185.665 388.896 191.414 377.738 191.414C361.501 191.414 348.333 179.239 348.333 164.225C348.333 149.211 359.009 137.036 377.738 137.036V137.037ZM366.917 159.58H388.673C388.673 159.58 389.466 148.026 378.135 148.139C366.803 148.252 366.916 159.58 366.916 159.58H366.917Z" fill="#2E3192"/>
<path d="M436.888 137.037C450.167 137.037 458.85 142.491 461.006 149.797L443.859 151.114C443.859 151.114 441.083 145.658 435.019 146.511C428.956 147.363 425.216 152.819 431.676 155.376C439.262 158.379 446.305 157.092 452.617 159.559C458.243 161.758 463.686 167.704 463.686 174.025C463.686 183.69 453.742 191.528 437.114 191.528C421.766 191.528 412.112 184.85 410.717 176.221L428.216 173.676C428.216 173.676 430.54 179.757 436.66 181.12C442.78 182.484 446.86 179.473 447.03 175.267C447.2 171.061 441.476 170.343 430.485 168.417C419.494 166.491 416.664 162.851 416.664 162.851C413.878 160.189 412.242 156.954 412.242 153.463C412.242 144.393 421.465 137.036 436.888 137.036V137.037Z" fill="#2E3192"/>
<path d="M152.867 223.701H55.4175V263.751H152.867V223.701Z" fill="#A7A9AC"/>
<path d="M143.674 271.508C141.172 286.558 123.042 294.618 104.765 294.618C86.4886 294.618 70.2421 287.085 66.7607 271.508H143.674Z" fill="#6D6E71"/>
<path d="M38.9949 141.242C38.9949 141.242 31.4357 114.612 41.5776 89.1368C53.2087 59.9217 87.8599 41.4373 118.635 48.8282C140.699 54.127 155.654 70.9147 157.695 81.0132C144.181 98.4307 123.928 97.1146 112.074 99.1996C99.8365 101.352 66.7488 99.7664 54.5105 112.681C45.7114 121.967 40.4269 128.09 38.9949 141.242V141.242Z" fill="#A3CF62"/>
<mask id="mask0_1965_8477" style="mask-type:luminance" maskUnits="userSpaceOnUse" x="36" y="47" width="122" height="95">
<path d="M38.9949 141.242C38.9949 141.242 31.4357 114.612 41.5776 89.1368C53.2087 59.9217 87.8599 41.4373 118.635 48.8282C140.699 54.127 155.654 70.9147 157.695 81.0132C144.181 98.4307 123.928 97.1146 112.074 99.1996C99.8365 101.352 66.7488 99.7664 54.5105 112.681C45.7114 121.967 40.4269 128.09 38.9949 141.242V141.242Z" fill="white"/>
</mask>
<g mask="url(#mask0_1965_8477)">
<path d="M42.5304 145.482C42.5304 145.482 34.9712 118.853 45.1131 93.3775C56.7442 64.1624 91.3954 45.678 122.17 53.0689C144.234 58.3677 159.19 75.1554 161.23 85.2539C147.716 102.671 127.464 101.355 115.61 103.44C103.372 105.593 70.2843 104.007 58.046 116.922C49.2469 126.208 43.9624 132.331 42.5304 145.483V145.482Z" fill="#B9D989"/>
</g>
</svg>
