<svg width="471" height="80" viewBox="0 0 471 80" fill="none" xmlns="http://www.w3.org/2000/svg">
<g clip-path="url(#clip0_1963_8341)">
<path d="M164.216 31.2879C164.963 31.2879 165.502 31.2879 166.042 31.2879C175.675 31.2879 185.31 31.2879 194.944 31.2876C195.325 31.2876 195.708 31.2969 196.087 31.2661C199.92 30.9607 202.651 27.1986 201.75 23.4709C201.007 20.3941 198.461 18.5094 194.958 18.5051C185.269 18.493 175.581 18.4992 165.892 18.5051C165.365 18.5055 164.838 18.568 164.216 18.6074C164.216 22.8439 164.216 26.948 164.216 31.2879ZM164.216 63.224C165.053 63.224 165.698 63.224 166.341 63.224C176.404 63.224 186.467 63.2333 196.53 63.2111C197.883 63.2079 199.246 63.1202 200.586 62.9338C205.629 62.231 209.359 57.2652 208.688 52.2177C208.013 47.1328 204.037 43.5984 198.859 43.5859C187.817 43.5581 176.776 43.5757 165.735 43.5808C165.261 43.5808 164.788 43.6459 164.216 43.6893C164.216 50.1827 164.216 56.5693 164.216 63.224ZM151.978 75.4649C151.978 52.3181 151.978 29.4352 151.978 6.38367C152.624 6.33719 153.2 6.26032 153.777 6.25952C167.601 6.25362 181.426 6.21964 195.25 6.26732C204.696 6.3001 212.183 12.5822 213.844 21.8591C214.565 25.8809 213.951 29.7698 212.074 33.4292C211.851 33.8642 211.616 34.2933 211.391 34.7271C211.367 34.7736 211.371 34.8341 211.329 35.0731C211.711 35.3752 212.174 35.7263 212.618 36.0972C219.612 41.9272 222.405 49.4045 220.452 58.2393C218.542 66.8893 212.935 72.4232 204.368 74.7413C202.351 75.288 200.174 75.4266 198.069 75.4344C183.319 75.4918 168.569 75.4649 153.821 75.4649C153.283 75.4649 152.745 75.4649 151.978 75.4649Z" fill="#353436"/>
<path d="M12.2514 31.4146C27.028 31.4146 41.7511 31.4146 56.4115 31.4146C56.8165 33.003 56.8353 41.9695 56.4576 43.6219C41.8189 43.6219 27.1397 43.6219 12.3065 43.6219C12.2432 44.2349 12.1557 44.6976 12.155 45.1603C12.1436 48.8631 12.121 52.5662 12.1569 56.2689C12.1971 60.4956 14.8847 63.171 19.1544 63.212C23.5099 63.2542 27.8659 63.2242 32.2226 63.2242C43.7658 63.2242 55.3101 63.2242 66.8536 63.2242C67.499 63.2242 68.1449 63.2242 68.7493 63.2242C69.1374 64.5068 69.2284 73.1258 68.8848 75.3448C68.3542 75.3826 67.7806 75.4599 67.2067 75.4599C51.252 75.4666 35.2979 75.4529 19.3434 75.4717C14.0397 75.4783 9.38078 73.8766 5.5859 70.097C1.94487 66.4696 0.060513 62.0711 0.0558275 56.9112C0.0468469 46.402 0.221382 35.8889 0.00389639 25.3847C-0.200704 15.526 7.67095 6.10113 19.241 6.22218C32.4714 6.36082 45.704 6.25456 58.9359 6.25456C61.6582 6.25456 64.3813 6.24907 67.1035 6.25927C67.6868 6.26116 68.2702 6.31824 68.9598 6.35652C68.9598 10.4231 68.9598 14.3609 68.9598 18.5002C68.1788 18.5002 67.4854 18.5002 66.7923 18.5002C51.2188 18.5002 35.6454 18.5002 20.0724 18.501C19.5276 18.501 18.9821 18.4799 18.4395 18.5127C15.2388 18.7052 12.6559 20.8582 12.3034 24.0357C12.041 26.3898 12.2514 28.7966 12.2514 31.4146Z" fill="#353436"/>
<path d="M110.454 48.1807C110.807 47.5422 111.075 47.0893 111.314 46.6219C117.846 33.8336 124.365 21.0398 130.915 8.26041C132.084 5.98138 131.484 6.27616 134.228 6.25896C137.33 6.23987 140.432 6.25466 143.534 6.25466C144.123 6.25466 144.711 6.25466 145.333 6.25466C145.101 7.51113 111.787 73.1083 110.338 75.2031C98.6468 52.2714 87.0108 29.4456 75.2974 6.46747C75.8295 6.37651 76.1771 6.26636 76.5245 6.26486C80.2258 6.25277 83.9277 6.29055 87.6276 6.23518C88.6679 6.21958 89.156 6.66189 89.5999 7.53612C94.9949 18.1566 100.424 28.7592 105.845 39.3672C107.132 41.8864 108.412 44.4076 109.704 46.9241C109.892 47.2896 110.126 47.6328 110.454 48.1807Z" fill="#353436"/>
<path d="M401.932 18.6482C392.423 18.6482 383.087 18.6482 373.631 18.6482C373.631 14.495 373.631 10.5541 373.631 6.49171C396.542 6.49171 419.421 6.49171 442.415 6.49171C442.415 10.4951 442.415 14.4317 442.415 18.6112C433.036 18.631 423.753 18.6081 414.279 18.6245C414.241 19.4706 414.179 20.2082 414.179 20.9458C414.174 38.3114 414.175 55.6775 414.175 73.0443C414.175 73.7967 414.175 74.5492 414.175 75.5179C410.059 75.6171 406.123 75.5448 401.965 75.5714C401.898 71.6914 401.942 67.9574 401.934 64.2246C401.926 60.4145 401.932 56.6036 401.932 52.7927C401.932 49.0357 401.932 45.2795 401.932 41.5237C401.932 37.7136 401.932 33.9028 401.932 30.0919C401.932 26.3474 401.932 22.6033 401.932 18.6482Z" fill="#353436"/>
<path d="M381.889 63.283C381.889 67.4219 381.889 71.371 381.889 75.4571C381.394 75.4942 380.923 75.5618 380.452 75.5618C369.183 75.5688 357.913 75.6152 346.644 75.5528C335.681 75.4915 326.341 66.9815 325.165 56.0903C325.043 54.9573 324.972 53.8121 324.971 52.673C324.958 37.973 324.962 23.2738 324.962 8.57336C324.962 7.92993 324.962 7.28601 324.962 6.68476C326.317 6.30172 335.302 6.24045 337.247 6.5969C337.247 7.19195 337.247 7.83118 337.247 8.4699C337.247 23.3871 337.349 38.3057 337.191 53.2216C337.138 58.2371 341.453 63.3064 347.224 63.2564C358.166 63.1635 369.108 63.263 380.052 63.283C380.636 63.2837 381.221 63.283 381.889 63.283Z" fill="#353436"/>
<path d="M289.871 17.5218C291.928 14.6656 293.954 11.8507 295.977 9.03977C306.577 15.9989 317.164 36.7948 307.065 57.3532C296.48 78.9019 272.95 83.5972 257.531 77.4389C257.774 77.0707 257.981 76.7017 258.238 76.3718C259.948 74.1864 261.711 72.0396 263.367 69.814C264.152 68.7617 264.982 68.4813 266.296 68.6789C277.538 70.3634 286.802 66.5524 294.02 58.0007C298.79 52.3507 300.364 45.4657 300.163 38.1716C299.985 31.7098 297.535 26.1193 293.373 21.2471C292.316 20.0094 291.144 18.8696 289.871 17.5218Z" fill="#353436"/>
<path d="M251.303 74.6528C234.292 65.1725 228.041 46.2438 232.348 29.5884C234.728 20.3829 239.862 13.0017 247.606 7.49459C252.613 3.9344 258.13 1.53273 264.457 0.440992C264.22 1.23825 264.091 1.75374 263.915 2.25313C262.833 5.33152 261.704 8.39311 260.674 11.4879C260.336 12.505 259.775 13.0848 258.799 13.5334C252.54 16.4147 247.817 20.9385 244.837 27.1597C239.707 37.8692 240.866 52.2952 251.756 61.6767C252.333 62.1738 252.914 62.6665 253.512 63.139C255.536 64.7379 255.531 64.7301 254.555 67.0279C253.682 69.0798 252.831 71.1407 251.963 73.1945C251.757 73.6833 251.526 74.1616 251.303 74.6528Z" fill="#353436"/>
<path d="M467.732 15.4665C467.754 11.2468 464.408 7.85919 460.207 7.84979C456.041 7.8408 452.579 11.2838 452.591 15.4232C452.602 19.4871 455.982 22.8997 460.08 22.984C464.211 23.0683 467.709 19.6319 467.732 15.4665ZM449.367 15.4411C449.347 9.4878 454.158 4.61057 460.108 4.55509C466.107 4.50002 471.04 9.43072 471.003 15.4458C470.966 21.4315 466.147 26.2342 460.182 26.2295C454.214 26.2248 449.388 21.4108 449.367 15.4411Z" fill="#353436"/>
<path d="M458.49 14.2819C459.38 14.2819 460.175 14.3139 460.966 14.2725C461.747 14.2319 462.091 13.7223 462.124 12.9824C462.16 12.1683 461.755 11.6529 460.908 11.5841C460.127 11.5201 459.334 11.5705 458.49 11.5705C458.49 12.5583 458.49 13.3346 458.49 14.2819ZM462.068 16.2603C462.869 17.6624 463.615 18.9705 464.369 20.2902C462.684 20.9454 462.367 20.8498 461.581 19.4777C461.096 18.6304 460.607 17.7843 460.155 16.9197C459.794 16.2302 459.309 15.9764 458.431 16.3817C458.431 17.6608 458.431 19.0014 458.431 20.4987C457.794 20.56 457.284 20.6089 456.578 20.6771C456.345 17.0166 456.493 13.4736 456.475 9.75529C458.333 9.75529 460.056 9.66933 461.764 9.78528C462.872 9.86105 463.665 10.6103 463.955 11.7021C464.303 13.0117 464.259 14.3022 463.245 15.3579C462.951 15.6641 462.568 15.8831 462.068 16.2603Z" fill="#353436"/>
<path d="M255.413 75.1234C257.661 69.6968 259.906 64.2687 262.162 58.846C263.938 54.5763 265.734 50.3152 267.501 46.0416C267.683 45.6035 268.003 45.1897 267.91 44.531C266.1 44.531 264.277 44.5591 262.453 44.5232C260.769 44.49 259.076 44.531 257.402 44.2838C255.937 44.0679 255.903 44.0464 256.326 42.6899C256.876 40.9258 257.376 39.1321 258.092 37.4344C263.003 25.8033 266.998 13.817 271.794 2.14226C272.757 -0.201241 272.743 -0.152457 275.236 0.133022C280.037 0.681989 284.611 2.00912 289.013 3.97319C289.211 4.06215 289.41 4.15041 289.607 4.24297C290.938 4.86891 290.941 4.87121 290.192 6.0731C288.607 8.61342 287.021 11.1517 285.433 13.6894C281.013 20.7469 276.588 27.8025 272.177 34.8663C271.955 35.2208 271.608 35.5332 271.633 36.1943C276.481 36.1943 281.334 36.1943 286.159 36.1943C286.305 36.8924 285.891 37.1646 285.641 37.4836C275.769 50.0801 265.887 62.6686 256.005 75.257C255.938 75.3417 255.854 75.4132 255.777 75.4901C255.458 75.5635 255.301 75.4768 255.413 75.1234Z" fill="#6AC22F"/>
</g>
<defs>
<clipPath id="clip0_1963_8341">
<rect width="471" height="79.9361" fill="white"/>
</clipPath>
</defs>
</svg>
