<svg width="471" height="168" viewBox="0 0 471 168" fill="none" xmlns="http://www.w3.org/2000/svg">
<path d="M158.954 84.6097H170.044V62.9985H88.6064V162.593H170.071V140.261H159.148" stroke="white" stroke-width="5.02002" stroke-miterlimit="10"/>
<path d="M158.926 74.9824H112.12V148.666H158.926V74.9824Z" fill="#C8C8C8" stroke="black" stroke-width="2.51001" stroke-miterlimit="10"/>
<path d="M158.926 91.7944H105.506V131.66H158.926V91.7944Z" fill="#C8C8C8" stroke="black" stroke-width="2.51001" stroke-miterlimit="10"/>
<path d="M42.3295 94.8188V17.4181H27.1816L41.2177 2.40962C41.2177 2.40962 70.1794 -4.96982 90.5804 6.09931C96.0836 9.23418 104.95 14.7271 105.061 27.1556C105.061 31.6221 98.7797 46.4087 74.9878 52.0126C71.5135 52.9004 69.2622 53.4552 69.3733 51.4578C69.4845 49.4603 71.9582 48.212 71.9582 48.212C71.9582 48.212 86.6614 44.7442 84.0765 29.8466C82.3811 25.6021 76.4331 14.9491 64.8985 16.4194C63.6755 16.7523 61.2018 17.1962 61.2018 17.1962L60.7571 83.5L42.3573 94.8188H42.3295Z" fill="#D7D7D7"/>
<path d="M75.7103 106.276C74.4873 105.416 70.7907 102.226 68.5671 99.3959C66.3436 96.5661 62.3968 91.7667 61.0627 91.9054L60.6736 82.6118L42.3015 93.9029V94.4855C42.3015 94.4855 42.2182 95.3455 40.9118 95.7894C39.6333 96.2332 27.2093 94.5132 15.2021 103.918C13.1176 105.777 -3.78135 119.426 0.77691 143.534C2.13883 149.942 4.30678 162.593 21.1501 166.893C25.7917 167.753 45.2755 171.442 59.0615 157.904C67.0662 149.554 77.1833 141.425 76.5719 119.037C76.4607 116.818 77.4335 115.597 79.9072 116.097C82.3809 116.596 93.9989 120.147 105.005 116.457L105.061 110.687C105.061 110.687 79.935 110.077 75.738 106.248L75.7103 106.276ZM42.4961 159.042C38.2714 159.985 19.3435 162.676 15.5913 146.89C14.3683 139.594 12.6729 118.372 30.0165 107.608C34.408 105.277 35.9089 102.836 48.1939 103.668C48.1939 103.668 61.6741 105.36 62.2578 117.234C62.8137 128.553 63.9533 149.304 42.4961 159.042Z" fill="#F8941E"/>
<path d="M158.926 74.9824H118.069V148.666H158.926V74.9824Z" fill="#C8C8C8" stroke="black" stroke-width="2.51001" stroke-miterlimit="10"/>
<path d="M158.926 74.9824H118.069V148.666H158.926V74.9824Z" fill="#C8C8C8" stroke="black" stroke-width="2.51001" stroke-miterlimit="10"/>
<path d="M159.232 85.7476H140.527V90.325H159.232V85.7476Z" fill="black"/>
<path d="M159.232 93.5972H140.527V98.1746H159.232V93.5972Z" fill="black"/>
<path d="M159.232 107.413H140.527V111.991H159.232V107.413Z" fill="black"/>
<path d="M159.232 112.323H140.527V116.901H159.232V112.323Z" fill="black"/>
<path d="M158.927 125.307H140.221V129.885H158.927V125.307Z" fill="black"/>
<path d="M158.927 133.27H140.221V137.847H158.927V133.27Z" fill="black"/>
<path d="M158.926 104.667H140.527V100.173H162.79V123.365H140.527V119.065H158.926V104.667Z" fill="#C8C8C8" stroke="black" stroke-width="2.51001" stroke-miterlimit="10"/>
<path d="M245.755 75.0662C247.228 76.6197 247.951 78.7836 247.951 81.5856C247.951 84.3875 247.228 86.6624 245.755 88.216C244.282 89.7695 242.198 90.5186 239.502 90.5186H236.194V100.173H232.219V72.7358H239.474C242.17 72.7358 244.254 73.5126 245.727 75.0662H245.755ZM242.809 85.4695C243.532 84.6095 243.921 83.3334 243.921 81.5579C243.921 78.1733 242.448 76.4533 239.474 76.4533H236.222V86.7179H239.474C240.975 86.7179 242.086 86.3018 242.809 85.4417V85.4695Z" fill="#F8941E"/>
<path d="M253.399 98.2312C251.898 96.5944 251.147 94.3473 251.147 91.4621V81.4194C251.147 78.5342 251.898 76.2871 253.399 74.6503C254.899 73.0135 256.956 72.209 259.569 72.209C262.182 72.209 264.238 73.0135 265.739 74.6503C267.24 76.2871 267.991 78.5342 267.991 81.4194V91.4621C267.991 94.3473 267.24 96.5944 265.739 98.2312C264.238 99.8679 262.182 100.672 259.569 100.672C256.956 100.672 254.899 99.8679 253.399 98.2312ZM262.765 95.4292C263.488 94.5137 263.877 93.1821 263.877 91.4621V81.4194C263.877 79.6994 263.516 78.3677 262.765 77.4523C262.043 76.5368 260.959 76.0929 259.541 76.0929C258.124 76.0929 257.04 76.5368 256.317 77.4523C255.594 78.3677 255.205 79.6994 255.205 81.4194V91.4621C255.205 93.1821 255.567 94.5137 256.317 95.4292C257.04 96.3447 258.124 96.7886 259.541 96.7886C260.959 96.7886 262.015 96.3447 262.765 95.4292Z" fill="#F8941E"/>
<path d="M270.187 72.7358H274.3L277.135 87.7444L277.441 89.3812C277.608 90.2966 277.775 91.2399 277.941 92.2386C278.108 93.2373 278.275 94.1528 278.386 95.0128H278.553C278.775 93.5425 279.192 91.0457 279.804 87.5224L282.555 73.1242H286.752L289.504 87.5224C290.143 91.0457 290.56 93.5425 290.754 95.0128H290.921C291.06 94.1528 291.199 93.2373 291.366 92.2386C291.533 91.2399 291.699 90.2966 291.866 89.3812L292.172 87.7444L295.007 72.7358H299.121L292.95 100.173H288.698L286.029 88.0495C285.751 86.8011 285.474 85.303 285.223 83.583C284.973 81.863 284.806 80.4204 284.723 79.2275H284.556C284.445 80.4482 284.278 81.9185 284.028 83.6662C283.778 85.3863 283.5 86.8566 283.222 88.0495L280.554 100.173H276.301L270.131 72.7358H270.187Z" fill="#F8941E"/>
<path d="M316.019 96.4281V100.146H302.15V72.7085H315.63V76.4259H306.125V84.388H314.88V88.0222H306.125V96.4003H316.019V96.4281Z" fill="#F8941E"/>
<path d="M326.72 90.2134H324.246V100.173H320.272V72.7358H327.387C330 72.7358 332.029 73.4849 333.474 74.983C334.919 76.481 335.642 78.5894 335.642 81.3082C335.642 83.4166 335.197 85.1921 334.336 86.6347C333.474 88.0773 332.251 89.076 330.695 89.6586L336.67 100.173H332.279L326.748 90.2134H326.72ZM324.219 86.4405H327.276C328.666 86.4405 329.722 85.9966 330.444 85.1366C331.167 84.2766 331.528 83.0282 331.528 81.3637C331.528 79.6991 331.167 78.534 330.472 77.7017C329.777 76.8694 328.721 76.4533 327.331 76.4533H324.219V86.4127V86.4405Z" fill="#F8941E"/>
<path d="M349.956 98.2312C348.455 96.5944 347.705 94.3473 347.705 91.4621V81.4194C347.705 78.5342 348.455 76.2871 349.956 74.6503C351.457 73.0135 353.514 72.209 356.126 72.209C358.739 72.209 360.796 73.0135 362.297 74.6503C363.797 76.2871 364.548 78.5342 364.548 81.4194V91.4621C364.548 94.3473 363.797 96.5944 362.297 98.2312C360.796 99.8679 358.739 100.672 356.126 100.672C353.514 100.672 351.457 99.8679 349.956 98.2312ZM359.35 95.4292C360.073 94.5137 360.462 93.1821 360.462 91.4621V81.4194C360.462 79.6994 360.101 78.3677 359.35 77.4523C358.628 76.5368 357.544 76.0929 356.126 76.0929C354.709 76.0929 353.625 76.5368 352.902 77.4523C352.179 78.3677 351.79 79.6994 351.79 81.4194V91.4621C351.79 93.1821 352.152 94.5137 352.902 95.4292C353.625 96.3447 354.709 96.7886 356.126 96.7886C357.544 96.7886 358.6 96.3447 359.35 95.4292Z" fill="#F8941E"/>
<path d="M366.772 72.7362H370.941L374.248 87.8557C374.554 89.2983 374.943 91.2403 375.36 93.6816C375.444 94.0145 375.527 94.5139 375.638 95.1242H375.805C376.416 91.7396 376.861 89.3261 377.167 87.828L380.502 72.7085H384.616L377.862 100.146H373.554L366.8 72.7085L366.772 72.7362Z" fill="#F8941E"/>
<path d="M401.514 96.4281V100.146H387.645V72.7085H401.125V76.4259H391.62V84.388H400.375V88.0222H391.62V96.4003H401.514V96.4281Z" fill="#F8941E"/>
<path d="M412.215 90.2134H409.741V100.173H405.767V72.7358H412.882C415.495 72.7358 417.524 73.4849 418.969 74.983C420.414 76.481 421.137 78.5894 421.137 81.3082C421.137 83.4166 420.692 85.1921 419.831 86.6347C418.969 88.0773 417.746 89.076 416.19 89.6586L422.165 100.173H417.774L412.243 90.2134H412.215ZM409.714 86.4405H412.771C414.161 86.4405 415.217 85.9966 415.94 85.1366C416.662 84.2766 417.024 83.0282 417.024 81.3637C417.024 79.6991 416.662 78.534 415.967 77.7017C415.272 76.8694 414.216 76.4533 412.827 76.4533H409.714V86.4127V86.4405Z" fill="#F8941E"/>
<path d="M196.337 143.479V147.196H182.468V119.759H195.948V123.477H186.442V131.439H195.198V135.073H186.442V143.451H196.337V143.479Z" fill="#F8941E"/>
<path d="M213.987 123.532H208.261V147.196H204.203V123.532H198.505V119.759H213.987V123.532Z" fill="#F8941E"/>
<path d="M232.859 119.759V147.196H228.884V135.156H221.102V147.196H217.127V119.759H221.102V131.439H228.884V119.759H232.859Z" fill="#F8941E"/>
<path d="M252.231 143.479V147.196H238.362V119.759H251.842V123.477H242.337V131.439H251.092V135.073H242.337V143.451H252.231V143.479Z" fill="#F8941E"/>
<path d="M262.904 137.237H260.431V147.196H256.456V119.759H263.571C266.184 119.759 268.213 120.508 269.658 122.006C271.104 123.504 271.826 125.613 271.826 128.332C271.826 130.44 271.382 132.216 270.52 133.658C269.658 135.101 268.435 136.099 266.879 136.682L272.855 147.196H268.463L262.932 137.237H262.904ZM260.431 133.492H263.488C264.878 133.492 265.934 133.048 266.657 132.188C267.379 131.328 267.741 130.079 267.741 128.415C267.741 126.75 267.379 125.585 266.684 124.753C265.989 123.921 264.933 123.504 263.544 123.504H260.431V133.464V133.492Z" fill="#F8941E"/>
<path d="M276.273 119.759H280.248L286.585 133.741C287.058 134.795 287.891 136.792 289.087 139.789L289.198 139.705C289.031 138.374 288.92 136.82 288.809 134.989C288.697 133.186 288.642 131.66 288.642 130.439V119.731H292.561V147.168H288.586L282.472 133.713C281.332 130.911 280.47 128.692 279.831 127.055L279.72 127.138C279.859 128.498 279.97 130.079 280.053 131.91C280.137 133.741 280.192 135.294 280.192 136.598V147.196H276.273V119.759Z" fill="#F8941E"/>
<path d="M311.933 143.479V147.196H298.064V119.759H311.544V123.477H302.039V131.439H310.794V135.073H302.039V143.451H311.933V143.479Z" fill="#F8941E"/>
<path d="M329.555 123.532H323.829V147.196H319.771V123.532H314.073V119.759H329.555V123.532Z" fill="#F8941E"/>
<path d="M354.459 143.45V147.223H341.368V119.786H345.342V143.45H354.459Z" fill="#F8941E"/>
<path d="M357.488 119.759H361.463V147.196H357.488V119.759Z" fill="#F8941E"/>
<path d="M368.3 145.393C366.855 143.895 366.132 141.786 366.132 139.04V127.86C366.132 125.113 366.855 123.005 368.272 121.534C369.69 120.064 371.663 119.315 374.192 119.315C376.722 119.315 378.584 120.036 379.974 121.479C381.363 122.921 382.114 124.974 382.225 127.665H378.306C378.223 126.112 377.833 124.947 377.166 124.225C376.472 123.504 375.499 123.116 374.22 123.116C371.552 123.116 370.218 124.725 370.218 127.887V139.012C370.218 140.621 370.579 141.842 371.302 142.618C372.024 143.395 373.025 143.784 374.331 143.784C375.638 143.784 376.694 143.395 377.444 142.646C378.195 141.897 378.556 140.732 378.556 139.206V135.766H374.192V132.243H382.447V139.234C382.447 141.897 381.669 143.978 380.224 145.42C378.778 146.863 376.805 147.612 374.304 147.612C371.802 147.612 369.801 146.863 368.356 145.365L368.3 145.393Z" fill="#F8941E"/>
<path d="M402.154 119.759V147.196H398.179V135.156H390.397V147.196H386.422V119.759H390.397V131.439H398.179V119.759H402.154Z" fill="#F8941E"/>
<path d="M421.054 123.532H415.328V147.196H411.27V123.532H405.573V119.759H421.054V123.532Z" fill="#F8941E"/>
<path d="M424.25 119.759H428.225V147.196H424.25V119.759Z" fill="#F8941E"/>
<path d="M433.672 119.759H437.647L443.984 133.741C444.457 134.795 445.29 136.792 446.486 139.789L446.597 139.705C446.43 138.374 446.319 136.82 446.208 134.989C446.096 133.186 446.041 131.66 446.041 130.439V119.731H449.96V147.168H445.985L439.871 133.713C438.731 130.911 437.869 128.692 437.23 127.055L437.119 127.138C437.258 128.498 437.369 130.079 437.452 131.91C437.536 133.741 437.591 135.294 437.591 136.598V147.196H433.672V119.759Z" fill="#F8941E"/>
<path d="M456.853 145.393C455.408 143.895 454.685 141.786 454.685 139.04V127.86C454.685 125.113 455.408 123.005 456.825 121.534C458.243 120.064 460.216 119.315 462.745 119.315C465.275 119.315 467.137 120.036 468.527 121.479C469.916 122.921 470.667 124.974 470.778 127.665H466.859C466.776 126.112 466.386 124.947 465.719 124.225C465.024 123.504 464.052 123.116 462.773 123.116C460.105 123.116 458.771 124.725 458.771 127.887V139.012C458.771 140.621 459.132 141.842 459.855 142.618C460.577 143.395 461.578 143.784 462.884 143.784C464.191 143.784 465.247 143.395 465.997 142.646C466.748 141.897 467.109 140.732 467.109 139.206V135.766H462.745V132.243H471V139.234C471 141.897 470.222 143.978 468.777 145.42C467.331 146.863 465.358 147.612 462.857 147.612C460.355 147.612 458.354 146.863 456.909 145.365L456.853 145.393Z" fill="#F8941E"/>
</svg>
