<svg width="415" height="101" viewBox="0 0 415 101" fill="none" xmlns="http://www.w3.org/2000/svg">
<rect x="10" y="10" width="81" height="81" rx="20" fill="#0B5CD4"/>
<rect x="10" y="10" width="81" height="81" rx="20" stroke="#0B5CD4"/>
<path d="M42.0449 74.208C40.7957 74.208 39.5246 74.118 38.2318 73.938C36.9535 73.77 35.7696 73.554 34.6801 73.29C33.5906 73.026 32.6973 72.762 32 72.498L32.6101 68.322C33.4962 68.682 34.4913 69.03 35.5953 69.366C36.7138 69.702 37.8904 69.984 39.1252 70.212C40.3599 70.44 41.6092 70.554 42.8729 70.554C44.6306 70.554 46.0324 70.284 47.0783 69.744C48.1242 69.192 48.6472 68.34 48.6472 67.188C48.6472 66.324 48.3712 65.622 47.8192 65.082C47.2672 64.53 46.4319 64.056 45.3134 63.66C44.2094 63.252 42.8003 62.826 41.0862 62.382C39.4447 61.95 37.9413 61.446 36.5758 60.87C35.2248 60.294 34.1426 59.544 33.3292 58.62C32.5157 57.684 32.1089 56.466 32.1089 54.966C32.1089 53.61 32.5229 52.41 33.3509 51.366C34.1935 50.31 35.4282 49.488 37.0552 48.9C38.6821 48.3 40.694 48 43.0908 48C45.0374 48 46.8459 48.18 48.5164 48.54C50.2015 48.888 51.6105 49.266 52.7436 49.674L51.9737 53.7041C50.2886 52.9601 48.9813 52.494 47.4705 52.158C45.9743 51.822 44.4345 51.654 42.8512 51.654C41.137 51.654 39.7498 51.906 38.6894 52.41C37.6435 52.914 37.1205 53.712 37.1205 54.804C37.1205 55.596 37.3747 56.238 37.8832 56.73C38.3916 57.21 39.1397 57.624 40.1275 57.972C41.1153 58.32 42.3209 58.68 43.7445 59.052C45.9089 59.592 47.7465 60.204 49.2573 60.888C50.768 61.572 51.9156 62.406 52.7 63.39C53.4989 64.374 53.8984 65.592 53.8984 67.044C53.8984 67.98 53.695 68.874 53.2883 69.726C52.8961 70.578 52.2424 71.346 51.3273 72.03C50.4121 72.702 49.1919 73.236 47.6666 73.632C46.1559 74.016 44.282 74.208 42.0449 74.208Z" fill="white"/>
<path d="M49.3523 54V28.8H53.2763V39.024H65.5523V28.8H69.4763V54H65.5523V42.714H53.2763V54H49.3523Z" fill="white"/>
<path d="M125.016 73.5V34.204H111.96V28.7H144.152V34.204H131.096V73.5H125.016ZM155.365 73.5V28.7H169.893C173.008 28.7 175.728 29.18 178.053 30.14C180.378 31.1 182.181 32.5827 183.461 34.588C184.741 36.5933 185.381 39.1747 185.381 42.332C185.381 45.404 184.709 47.9747 183.365 50.044C182.042 52.1133 180.112 53.7453 177.573 54.94L187.621 73.5H180.197L171.109 56.028C171.045 56.028 170.992 56.028 170.949 56.028C170.906 56.028 170.853 56.028 170.789 56.028H161.765V73.5H155.365ZM161.765 50.588H169.829C172.88 50.588 175.173 49.852 176.709 48.38C178.266 46.908 179.045 44.892 179.045 42.332C179.045 39.7293 178.266 37.7133 176.709 36.284C175.173 34.8547 172.88 34.14 169.829 34.14H161.765V50.588ZM223.24 61.404H204.039V55.9H223.24V61.404ZM212.743 34.652H214.535L200.775 73.5H194.375L210.439 28.7H216.839L232.903 73.5H226.503L212.743 34.652ZM243.605 73.5V28.7H260.181C264.512 28.7 268.352 29.5853 271.701 31.356C275.05 33.1267 277.674 35.6867 279.573 39.036C281.493 42.364 282.453 46.3853 282.453 51.1C282.453 55.8147 281.493 59.8467 279.573 63.196C277.674 66.524 275.05 69.0733 271.701 70.844C268.352 72.6147 264.512 73.5 260.181 73.5H243.605ZM249.685 67.996H260.181C263.594 67.996 266.453 67.292 268.757 65.884C271.082 64.4547 272.832 62.4707 274.005 59.932C275.2 57.3933 275.797 54.4493 275.797 51.1C275.797 47.7507 275.2 44.8067 274.005 42.268C272.832 39.7293 271.082 37.756 268.757 36.348C266.453 34.9187 263.594 34.204 260.181 34.204H249.685V67.996ZM295.225 73.5V28.7H301.305V73.5H295.225ZM316.658 73.5V28.7H323.25L345.33 62.236V28.7H351.474V73.5H346.29L322.738 38.108V73.5H316.658ZM386.168 74.396C382.029 74.396 378.296 73.4467 374.968 71.548C371.661 69.628 369.037 66.9187 367.096 63.42C365.176 59.9213 364.216 55.7933 364.216 51.036C364.216 46.3213 365.208 42.2253 367.192 38.748C369.197 35.2707 371.939 32.5827 375.416 30.684C378.915 28.764 382.904 27.804 387.384 27.804C389.795 27.804 392.088 28.06 394.264 28.572C396.461 29.0627 398.371 29.66 399.992 30.364L399.416 35.676C397.667 34.9933 395.811 34.428 393.848 33.98C391.885 33.532 389.795 33.308 387.576 33.308C383.757 33.308 380.611 34.108 378.136 35.708C375.683 37.2867 373.859 39.42 372.664 42.108C371.469 44.796 370.872 47.7933 370.872 51.1C370.872 54.5133 371.48 57.564 372.696 60.252C373.912 62.9187 375.779 65.0307 378.296 66.588C380.813 68.124 384.013 68.892 387.896 68.892C388.856 68.892 390.051 68.8067 391.48 68.636C392.909 68.4653 394.211 68.1453 395.384 67.676V56.54H388.344V51.036H401.464V71.004C399.715 71.964 397.539 72.7747 394.936 73.436C392.333 74.076 389.411 74.396 386.168 74.396Z" fill="black"/>
</svg>
