<svg width="343" height="304" viewBox="0 0 343 304" fill="none" xmlns="http://www.w3.org/2000/svg">
<path d="M238.468 125.178H254.837V93.1738H134.582V240.543H254.883V207.483H238.766" stroke="white" stroke-width="4.59166" stroke-miterlimit="10"/>
<path d="M238.399 110.944H169.294V219.95H238.399V110.944Z" fill="#C8C8C8" stroke="black" stroke-width="2.29583" stroke-miterlimit="10"/>
<path d="M238.422 135.831H159.537V194.81H238.422V135.831Z" fill="#C8C8C8" stroke="black" stroke-width="2.29583" stroke-miterlimit="10"/>
<path d="M66.2115 140.285V25.769H43.8501L64.5585 3.56837C64.5585 3.56837 107.307 -7.35977 137.474 9.03245C145.601 13.67 158.687 21.7973 158.848 40.1868C158.848 46.8218 149.573 68.701 114.424 76.966C109.281 78.2976 105.975 79.1241 106.136 76.1395C106.297 73.1549 109.947 71.3412 109.947 71.3412C109.947 71.3412 131.666 66.1986 127.854 44.1586C125.375 37.8681 116.582 22.1187 99.5239 24.2767C97.7102 24.7818 94.0599 25.4476 94.0599 25.4476L93.3941 123.548L66.2115 140.285Z" fill="#D7D7D7"/>
<path d="M115.526 157.228C113.712 155.965 108.248 151.213 104.965 147.035C101.682 142.856 95.8736 135.762 93.8533 135.923L93.3023 122.171L66.1656 138.885V139.757C66.1656 139.757 66.0278 141.02 64.1223 141.685C62.2167 142.351 43.8731 139.78 26.1493 153.716C23.0729 156.471 -1.85984 176.674 4.86694 212.351C6.86431 221.81 10.0555 240.567 34.9423 246.926C41.8068 248.189 70.5506 253.653 90.9376 233.633C102.761 221.259 117.684 209.252 116.789 176.123C116.605 172.84 118.051 171.026 121.702 171.761C125.352 172.495 142.502 177.776 158.756 172.312L158.825 163.748C158.825 163.748 121.702 162.83 115.526 157.205V157.228ZM66.464 235.332C60.2423 236.71 32.2791 240.727 26.7462 217.333C24.9554 206.543 22.453 175.113 48.0515 159.203C54.5487 155.736 56.7756 152.154 74.8897 153.394C74.8897 153.394 94.8175 155.897 95.644 173.46C96.4705 190.196 98.1465 220.937 66.4411 235.309L66.464 235.332Z" fill="#F8941E"/>
<path d="M238.399 110.944H178.064V219.95H238.399V110.944Z" fill="#C8C8C8" stroke="black" stroke-width="2.29583" stroke-miterlimit="10"/>
<path d="M238.399 110.944H178.064V219.95H238.399V110.944Z" fill="#C8C8C8" stroke="black" stroke-width="2.29583" stroke-miterlimit="10"/>
<path d="M238.858 126.854H211.239V133.604H238.858V126.854Z" fill="black"/>
<path d="M238.858 138.448H211.239V145.198H238.858V138.448Z" fill="black"/>
<path d="M238.858 158.904H211.239V165.654H238.858V158.904Z" fill="black"/>
<path d="M238.858 166.182H211.239V172.932H238.858V166.182Z" fill="black"/>
<path d="M238.399 185.398H210.78V192.148H238.399V185.398Z" fill="black"/>
<path d="M238.399 197.176H210.78V203.926H238.399V197.176Z" fill="black"/>
<path d="M238.399 154.862H211.239V148.182H244.116V182.527H211.239V176.168H238.399V154.862Z" fill="#C8C8C8" stroke="black" stroke-width="2.29583" stroke-miterlimit="10"/>
<path d="M2.89079 292.9V259.64H16.013C18.5357 259.64 20.6848 260.121 22.4604 261.085C24.2361 262.038 25.5894 263.364 26.5205 265.064C27.4625 266.753 27.9335 268.702 27.9335 270.91C27.9335 273.119 27.4571 275.068 26.5043 276.757C25.5515 278.446 24.1711 279.761 22.363 280.703C20.5657 281.645 18.3895 282.116 15.8344 282.116H7.47057V276.481H14.6975C16.0509 276.481 17.1661 276.248 18.0431 275.783C18.9309 275.306 19.5913 274.651 20.0244 273.817C20.4683 272.973 20.6902 272.004 20.6902 270.91C20.6902 269.806 20.4683 268.842 20.0244 268.02C19.5913 267.186 18.9309 266.542 18.0431 266.087C17.1553 265.621 16.0293 265.389 14.6651 265.389H9.92287V292.9H2.89079ZM43.24 293.387C40.7173 293.387 38.5357 292.851 36.6951 291.779C34.8654 290.697 33.4525 289.192 32.4564 287.264C31.4603 285.326 30.9623 283.08 30.9623 280.525C30.9623 277.948 31.4603 275.696 32.4564 273.769C33.4525 271.831 34.8654 270.326 36.6951 269.254C38.5357 268.171 40.7173 267.63 43.24 267.63C45.7627 267.63 47.9389 268.171 49.7686 269.254C51.6092 270.326 53.0275 271.831 54.0236 273.769C55.0197 275.696 55.5177 277.948 55.5177 280.525C55.5177 283.08 55.0197 285.326 54.0236 287.264C53.0275 289.192 51.6092 290.697 49.7686 291.779C47.9389 292.851 45.7627 293.387 43.24 293.387ZM43.2725 288.028C44.4201 288.028 45.3783 287.703 46.147 287.053C46.9157 286.393 47.495 285.494 47.8848 284.357C48.2854 283.221 48.4857 281.927 48.4857 280.476C48.4857 279.025 48.2854 277.731 47.8848 276.595C47.495 275.458 46.9157 274.559 46.147 273.899C45.3783 273.238 44.4201 272.908 43.2725 272.908C42.114 272.908 41.1396 273.238 40.3492 273.899C39.5697 274.559 38.9796 275.458 38.579 276.595C38.1893 277.731 37.9944 279.025 37.9944 280.476C37.9944 281.927 38.1893 283.221 38.579 284.357C38.9796 285.494 39.5697 286.393 40.3492 287.053C41.1396 287.703 42.114 288.028 43.2725 288.028ZM60.1462 292.9V259.64H82.558V265.437H67.1783V273.363H81.4049V279.161H67.1783V287.102H82.6229V292.9H60.1462ZM116.776 269.205C116.647 267.895 116.089 266.877 115.104 266.152C114.118 265.427 112.781 265.064 111.092 265.064C109.945 265.064 108.976 265.226 108.185 265.551C107.395 265.865 106.789 266.304 106.366 266.867C105.955 267.43 105.749 268.068 105.749 268.783C105.728 269.378 105.852 269.898 106.123 270.342C106.404 270.786 106.789 271.17 107.276 271.495C107.763 271.809 108.326 272.085 108.965 272.323C109.604 272.551 110.286 272.746 111.011 272.908L113.999 273.623C115.45 273.947 116.782 274.38 117.994 274.922C119.207 275.463 120.257 276.129 121.145 276.919C122.033 277.71 122.72 278.641 123.208 279.713C123.706 280.785 123.96 282.013 123.971 283.399C123.96 285.435 123.44 287.2 122.412 288.694C121.394 290.177 119.922 291.33 117.994 292.153C116.078 292.965 113.767 293.371 111.06 293.371C108.375 293.371 106.036 292.959 104.044 292.137C102.063 291.314 100.514 290.096 99.3992 288.483C98.2949 286.858 97.7157 284.85 97.6615 282.457H104.466C104.542 283.573 104.861 284.504 105.424 285.251C105.998 285.987 106.762 286.545 107.714 286.923C108.678 287.292 109.766 287.476 110.979 287.476C112.17 287.476 113.204 287.302 114.081 286.956C114.968 286.609 115.656 286.128 116.143 285.511C116.63 284.893 116.874 284.184 116.874 283.383C116.874 282.636 116.652 282.008 116.208 281.499C115.775 280.99 115.136 280.557 114.292 280.2C113.458 279.843 112.435 279.518 111.222 279.226L107.601 278.316C104.796 277.634 102.582 276.567 100.958 275.117C99.3343 273.666 98.5277 271.712 98.5385 269.254C98.5277 267.24 99.0636 265.481 100.146 263.976C101.24 262.471 102.739 261.296 104.645 260.452C106.55 259.607 108.716 259.185 111.141 259.185C113.61 259.185 115.764 259.607 117.605 260.452C119.456 261.296 120.896 262.471 121.925 263.976C122.953 265.481 123.484 267.224 123.516 269.205H116.776ZM128.701 259.64H137.373L146.533 281.986H146.923L156.082 259.64H164.755V292.9H157.934V271.251H157.658L149.05 292.737H144.405L135.798 271.17H135.522V292.9H128.701V259.64ZM176.281 292.9H168.746L180.228 259.64H189.29L200.755 292.9H193.22L184.889 267.24H184.629L176.281 292.9ZM175.81 279.826H193.61V285.316H175.81V279.826ZM204.759 292.9V259.64H217.881C220.393 259.64 222.536 260.089 224.312 260.988C226.099 261.875 227.457 263.137 228.388 264.772C229.33 266.396 229.801 268.307 229.801 270.504C229.801 272.713 229.325 274.613 228.372 276.205C227.419 277.786 226.039 278.998 224.231 279.843C222.434 280.687 220.257 281.109 217.702 281.109H208.916V275.458H216.565C217.908 275.458 219.023 275.274 219.911 274.906C220.799 274.537 221.459 273.985 221.892 273.249C222.336 272.513 222.558 271.598 222.558 270.504C222.558 269.4 222.336 268.469 221.892 267.711C221.459 266.953 220.793 266.379 219.895 265.99C219.007 265.589 217.886 265.389 216.533 265.389H211.791V292.9H204.759ZM222.721 277.764L230.987 292.9H223.224L215.136 277.764H222.721ZM233.504 265.437V259.64H260.82V265.437H250.638V292.9H243.687V265.437H233.504ZM287.694 292.9H275.904V259.64H287.792C291.137 259.64 294.017 260.305 296.432 261.637C298.846 262.958 300.703 264.858 302.002 267.338C303.312 269.817 303.967 272.783 303.967 276.237C303.967 279.702 303.312 282.679 302.002 285.169C300.703 287.66 298.835 289.571 296.399 290.902C293.974 292.234 291.072 292.9 287.694 292.9ZM282.936 286.875H287.402C289.481 286.875 291.229 286.507 292.648 285.77C294.077 285.023 295.149 283.87 295.863 282.311C296.589 280.741 296.951 278.717 296.951 276.237C296.951 273.78 296.589 271.771 295.863 270.212C295.149 268.653 294.082 267.505 292.664 266.769C291.245 266.033 289.497 265.665 287.418 265.665H282.936V286.875ZM338.523 271.284H331.409C331.279 270.364 331.014 269.546 330.614 268.832C330.213 268.106 329.699 267.489 329.071 266.98C328.443 266.471 327.717 266.082 326.894 265.811C326.082 265.54 325.2 265.405 324.247 265.405C322.526 265.405 321.026 265.833 319.749 266.688C318.471 267.532 317.48 268.767 316.777 270.391C316.073 272.004 315.721 273.964 315.721 276.27C315.721 278.641 316.073 280.633 316.777 282.246C317.491 283.859 318.487 285.077 319.765 285.9C321.043 286.723 322.52 287.135 324.199 287.135C325.141 287.135 326.012 287.01 326.813 286.761C327.625 286.512 328.345 286.149 328.973 285.673C329.601 285.186 330.121 284.596 330.532 283.903C330.955 283.21 331.247 282.419 331.409 281.532L338.523 281.564C338.339 283.091 337.878 284.563 337.142 285.982C336.417 287.389 335.437 288.65 334.203 289.766C332.979 290.87 331.518 291.747 329.818 292.396C328.129 293.035 326.218 293.355 324.085 293.355C321.118 293.355 318.466 292.683 316.127 291.341C313.799 289.998 311.959 288.055 310.605 285.511C309.263 282.966 308.592 279.886 308.592 276.27C308.592 272.643 309.274 269.557 310.638 267.013C312.002 264.468 313.853 262.53 316.192 261.199C318.531 259.856 321.162 259.185 324.085 259.185C326.012 259.185 327.799 259.456 329.444 259.997C331.101 260.538 332.568 261.329 333.845 262.368C335.123 263.397 336.162 264.658 336.964 266.152C337.776 267.646 338.295 269.357 338.523 271.284Z" fill="#D7D7D7"/>
</svg>
