<svg width="718" height="146" viewBox="0 0 718 146" fill="none" xmlns="http://www.w3.org/2000/svg">
<g clip-path="url(#clip0_1969_8931)">
<path d="M21.3032 -0.267647C22.2843 -0.274444 22.2843 -0.274444 23.2852 -0.281378C25.4875 -0.294086 27.6895 -0.292398 29.8918 -0.290749C31.4671 -0.296731 33.0423 -0.303536 34.6176 -0.311104C38.9075 -0.328821 43.1973 -0.333463 47.4872 -0.334736C50.1705 -0.336157 52.8538 -0.340425 55.537 -0.34573C64.9082 -0.364259 74.2794 -0.372399 83.6506 -0.370827C92.3665 -0.36963 101.082 -0.390653 109.798 -0.422315C117.29 -0.448556 124.782 -0.459191 132.275 -0.457917C136.745 -0.457409 141.215 -0.462996 145.685 -0.484273C149.9 -0.503784 154.114 -0.503693 158.329 -0.489239C159.867 -0.487165 161.405 -0.491769 162.942 -0.50396C176.087 -0.601321 188.72 1.09967 199 9.99978C203.472 15.2745 204.701 20.7107 205.312 27.4373C204.642 35.0808 202.201 40.3794 197.207 46.1756C194.105 48.7398 190.64 50.3209 187 51.9998C187.946 52.9304 187.946 52.9304 188.912 53.8799C191.251 56.185 193.586 58.4945 195.917 60.8072C196.927 61.807 197.939 62.8051 198.952 63.8013C200.409 65.2338 201.859 66.6728 203.309 68.1131C204.183 68.9771 205.058 69.8412 205.959 70.7315C208 72.9998 208 72.9998 209 75.9998C177.948 78.4299 177.948 78.4299 171.277 73.0584C168.698 70.2852 166.684 67.259 165.032 63.8526C163.532 61.159 162.231 59.1708 160 56.9998C157.128 56.4832 154.826 56.2776 151.953 56.2927C151.182 56.2776 150.411 56.2625 149.616 56.2469C147.16 56.204 144.706 56.1952 142.25 56.1873C140.582 56.1641 138.914 56.1388 137.246 56.1111C133.163 56.0441 129.084 56.0231 125 55.9998C125 62.5998 125 69.1998 125 75.9998C117.08 75.9998 109.16 75.9998 101 75.9998C101 63.1298 101 50.2598 101 36.9998C105.9 36.9624 110.799 36.925 115.848 36.8865C118.96 36.8562 122.073 36.825 125.186 36.7908C130.121 36.7366 135.056 36.6854 139.992 36.6533C143.973 36.6272 147.954 36.5868 151.935 36.5366C153.451 36.52 154.966 36.5084 156.481 36.5022C158.612 36.4925 160.741 36.4644 162.871 36.4322C164.082 36.421 165.292 36.4099 166.539 36.3985C170.522 35.9397 175.049 34.951 178 31.9998C178.417 28.5838 178.417 28.5838 178 24.9998C174.926 21.5846 171.122 21.1267 166.682 20.8611C165.883 20.8547 165.084 20.8482 164.261 20.8416C162.875 20.8269 162.875 20.8269 161.461 20.8119C160.459 20.8061 159.458 20.8004 158.427 20.7945C156.831 20.7796 156.831 20.7796 155.203 20.7645C151.691 20.7329 148.18 20.7081 144.668 20.6834C142.231 20.6628 139.795 20.6418 137.358 20.6204C130.948 20.5652 124.538 20.5158 118.128 20.4676C110.436 20.4085 102.743 20.3423 95.0506 20.2773C83.3671 20.1793 71.6836 20.0904 60 19.9998C60 38.4798 60 56.9598 60 75.9998C52.08 75.9998 44.16 75.9998 36 75.9998C36 57.5198 36 39.0398 36 19.9998C24.12 19.9998 12.24 19.9998 0 19.9998C3.37805 14.3697 3.37805 14.3697 5.41016 11.7381C5.84264 11.1767 6.27512 10.6153 6.7207 10.0369C7.1635 9.46777 7.60629 8.89864 8.0625 8.31228C8.50916 7.73156 8.95582 7.15083 9.41602 6.55251C14.6762 -0.248758 14.6762 -0.248759 21.3032 -0.267647Z" fill="black"/>
<path d="M600 0C608.25 0 616.5 0 625 0C625 8.91 625 17.82 625 27C639.52 27 654.04 27 669 27C669 18.09 669 9.18 669 0C676.92 0 684.84 0 693 0C693 25.08 693 50.16 693 76C685.08 76 677.16 76 669 76C669 66.43 669 56.86 669 47C654.48 47 639.96 47 625 47C625 56.57 625 66.14 625 76C616.75 76 608.5 76 600 76C600 50.92 600 25.84 600 0Z" fill="black"/>
<path d="M399 0C428.37 0 457.74 0 488 0C487.34 1.32 486.68 2.64 486 4C485.696 4.6293 485.393 5.25861 485.08 5.90698C482.285 11.3798 479.128 16.4634 474 20C465.764 22.6105 456.744 21.505 448.25 21C445.896 20.9196 443.542 20.8466 441.188 20.7812C435.446 20.6195 429.742 20.3072 424 20C424 31.88 424 43.76 424 56C445.12 56 466.24 56 488 56C485.75 61.626 485.75 61.626 483.434 64.5156C482.706 65.4321 482.706 65.4321 481.963 66.3672C481.46 66.9885 480.956 67.6098 480.438 68.25C479.93 68.8868 479.423 69.5236 478.9 70.1797C475.245 74.755 475.245 74.755 474 76C471.657 76.0949 469.345 76.1256 467.002 76.1135C466.258 76.1136 465.515 76.1138 464.749 76.1139C462.331 76.1131 459.914 76.1055 457.496 76.0977C456.008 76.0962 454.52 76.0952 453.031 76.0946C447.5 76.0894 441.969 76.0754 436.438 76.0625C424.083 76.0419 411.729 76.0213 399 76C399 50.92 399 25.84 399 0Z" fill="black"/>
<path d="M543 -0.195178C544.446 -0.191442 545.892 -0.188598 547.337 -0.186602C551.119 -0.179015 554.9 -0.159408 558.681 -0.137194C562.549 -0.116631 566.417 -0.107578 570.285 -0.0975216C577.857 -0.0761573 585.428 -0.0420809 593 0.000134617C590.389 4.66058 587.782 8.71212 584.312 12.8126C581.353 16.2066 581.353 16.2066 579 20.0001C577.78 20.0147 576.56 20.0293 575.303 20.0443C570.737 20.1027 566.171 20.1799 561.605 20.2626C559.636 20.2957 557.667 20.3237 555.699 20.3466C552.853 20.3805 550.009 20.4328 547.164 20.4884C546.297 20.4948 545.43 20.5012 544.536 20.5078C535.505 20.7206 527.446 22.3926 521 29.0001C518.267 33.4855 518.378 37.8936 519 43.0001C520.345 47.2616 522.687 50.0791 526.5 52.3751C531.195 54.555 534.702 55.1282 539.87 55.2055C541.051 55.2254 542.232 55.2453 543.448 55.2659C544.718 55.2826 545.988 55.2993 547.297 55.3165C548.601 55.3373 549.904 55.3581 551.248 55.3795C554.707 55.4346 558.166 55.4841 561.625 55.5324C565.157 55.5827 568.69 55.6383 572.222 55.6935C579.148 55.8009 586.074 55.9024 593 56.0001C591.144 59.9143 588.669 63.1731 586 66.5626C583.579 69.6582 581.182 72.7274 579 76.0001C576.904 76.3878 576.904 76.3878 574.282 76.4042C573.299 76.4169 572.317 76.4296 571.305 76.4426C570.238 76.4397 569.17 76.4368 568.07 76.4337C566.969 76.439 565.869 76.4442 564.735 76.4496C562.396 76.4561 560.057 76.4547 557.719 76.4462C554.174 76.4378 550.63 76.4663 547.086 76.4982C544.81 76.4998 542.534 76.4992 540.258 76.4962C538.687 76.5131 538.687 76.5131 537.084 76.5303C524.788 76.4165 512.891 72.3194 503.742 63.9298C495.694 55.4065 492.633 46.5162 492.789 34.9025C493.466 25.5879 497.31 17.4694 504.074 11.0236C515.953 1.27984 528.053 -0.30922 543 -0.195178Z" fill="black"/>
<path d="M311.77 -0.249023C312.979 -0.238238 312.979 -0.238238 314.213 -0.227234C315.062 -0.227526 315.911 -0.227818 316.786 -0.228119C319.599 -0.226722 322.413 -0.211146 325.227 -0.195496C327.174 -0.191767 329.122 -0.188919 331.07 -0.18692C336.202 -0.179275 341.335 -0.159618 346.467 -0.137512C351.702 -0.117073 356.937 -0.107923 362.172 -0.0978394C372.448 -0.0763734 382.724 -0.0422265 393 -0.000183105C392.532 0.930329 392.532 0.930329 392.055 1.87964C391.389 3.21778 390.74 4.56466 390.116 5.92267C387.092 12.1743 384.3 14.6129 379 19.9998C369.76 19.9998 360.52 19.9998 351 19.9998C351 38.4798 351 56.9598 351 75.9998C343.08 75.9998 335.16 75.9998 327 75.9998C327 57.5198 327 39.0398 327 19.9998C315.12 19.9998 303.24 19.9998 291 19.9998C294.378 14.3697 294.378 14.3697 296.41 11.7381C296.843 11.1767 297.275 10.6153 297.721 10.0369C298.163 9.46781 298.606 8.89868 299.062 8.31232C299.509 7.73159 299.956 7.15087 300.416 6.55255C305.659 -0.226157 305.659 -0.226157 311.77 -0.249023Z" fill="black"/>
<path d="M217 0C225.25 0 233.5 0 242 0C242 25.08 242 50.16 242 76C233.75 76 225.5 76 217 76C217 50.92 217 25.84 217 0Z" fill="black"/>
<path d="M484 28C483.547 29.1277 483.547 29.1277 483.086 30.2781C482.254 32.3639 481.438 34.456 480.629 36.5508C478.268 41.2442 475.836 44.6878 471 47C459.485 48.8703 447.577 47.7838 436 47C436 41.06 436 35.12 436 29C440.425 28.8554 444.85 28.7123 449.275 28.5728C450.773 28.5251 452.271 28.4767 453.769 28.4273C463.851 28.0956 473.912 27.9336 484 28Z" fill="black"/>
<path d="M281.062 29.3125C282.9 29.3678 284.738 29.4179 286.576 29.4629C291.055 29.5834 295.526 29.7728 300 30C297.156 35.9205 294.377 41.0295 289 45C282.533 46.8083 275.563 46.0341 268.938 45.6875C267.1 45.6323 265.262 45.5821 263.424 45.5371C258.945 45.4166 254.474 45.2272 250 45C257.487 29.4116 265.042 28.4745 281.062 29.3125Z" fill="black"/>
<path d="M508.5 101.687C509.615 101.684 510.73 101.681 511.879 101.678C524.762 101.762 524.762 101.762 528.813 105.812C532.358 112.342 531.755 121.434 530.188 128.5C528.474 133.549 528.474 133.549 526 135C520.507 136.008 515.138 136.183 509.563 136.187C508.755 136.2 507.947 136.212 507.115 136.224C494.497 136.255 494.497 136.255 490.063 132.25C486.772 125.282 487.262 115.964 488.625 108.5C490 105 490 105 492.305 103.301C497.708 101.399 502.816 101.605 508.5 101.687ZM494 109C492.851 112.446 492.796 115.243 492.75 118.875C492.724 120.089 492.699 121.303 492.672 122.554C493.035 126.365 493.622 128.029 496 131C498.838 131.754 498.838 131.754 502.094 131.629C503.289 131.631 504.484 131.633 505.715 131.635C507.589 131.599 507.589 131.599 509.5 131.562C510.749 131.573 511.998 131.584 513.285 131.595C519.61 131.97 519.61 131.97 524.858 129.199C526.576 125.891 526.395 122.634 526.313 119C526.316 118.288 526.319 117.577 526.322 116.844C526.311 111.565 526.311 111.565 524 107C519.324 105.46 514.43 105.776 509.563 105.75C508.621 105.729 507.679 105.709 506.709 105.687C499.831 105.604 499.831 105.604 494 109Z" fill="black"/>
<path d="M292 102C300 102 300 102 301.987 103.025C302.68 103.745 302.68 103.745 303.387 104.479C303.927 105.019 304.467 105.56 305.023 106.117C305.572 106.707 306.122 107.298 306.688 107.906C307.275 108.506 307.863 109.105 308.469 109.722C310.333 111.63 312.166 113.564 314 115.5C315.262 116.803 316.527 118.103 317.793 119.402C320.888 122.578 323.941 125.788 327 129C327.33 120.09 327.66 111.18 328 102C329.65 102 331.3 102 333 102C333 112.89 333 123.78 333 135C325 135 325 135 323.013 133.975C322.551 133.495 322.089 133.016 321.613 132.521C321.073 131.981 320.533 131.44 319.977 130.883C319.428 130.293 318.878 129.702 318.312 129.094C317.431 128.195 317.431 128.195 316.531 127.278C314.667 125.37 312.834 123.436 311 121.5C309.738 120.197 308.473 118.897 307.207 117.598C304.112 114.422 301.059 111.212 298 108C297.67 116.91 297.34 125.82 297 135C295.35 135 293.7 135 292 135C292 124.11 292 113.22 292 102Z" fill="black"/>
<path d="M64 102C72 102 72 102 73.9871 103.025C74.6799 103.745 74.6799 103.745 75.3867 104.479C75.9267 105.019 76.4666 105.56 77.0229 106.117C77.5723 106.707 78.1216 107.298 78.6875 107.906C79.2755 108.506 79.8634 109.105 80.4692 109.722C82.3325 111.63 84.166 113.564 86 115.5C87.2624 116.803 88.5268 118.103 89.793 119.402C92.8879 122.578 95.9409 125.788 99 129C99.33 120.09 99.66 111.18 100 102C101.65 102 103.3 102 105 102C105 112.89 105 123.78 105 135C97 135 97 135 95.0129 133.975C94.5511 133.495 94.0892 133.016 93.6133 132.521C93.0733 131.981 92.5334 131.44 91.9771 130.883C91.4277 130.293 90.8784 129.702 90.3125 129.094C89.4305 128.195 89.4305 128.195 88.5308 127.278C86.6675 125.37 84.834 123.436 83 121.5C81.7376 120.197 80.4732 118.897 79.207 117.598C76.1121 114.422 73.0591 111.212 70 108C69.67 116.91 69.34 125.82 69 135C67.35 135 65.7 135 64 135C64 124.11 64 113.22 64 102Z" fill="black"/>
<path d="M552 102C560 102 560 102 562.025 103.063C562.745 103.809 562.745 103.809 563.479 104.57C564.038 105.131 564.598 105.691 565.175 106.269C565.747 106.882 566.318 107.494 566.906 108.125C567.516 108.746 568.127 109.368 568.755 110.008C570.69 111.987 572.595 113.993 574.5 116C575.811 117.351 577.123 118.7 578.438 120.047C581.651 123.341 584.822 126.669 588 130C588.33 120.76 588.66 111.52 589 102C590.32 102 591.64 102 593 102C593 112.89 593 123.78 593 135C585 135 585 135 583.013 133.975C582.551 133.495 582.089 133.016 581.613 132.521C581.073 131.981 580.533 131.44 579.977 130.883C579.428 130.293 578.878 129.702 578.312 129.094C577.431 128.195 577.431 128.195 576.531 127.278C574.667 125.37 572.834 123.436 571 121.5C569.738 120.197 568.473 118.897 567.207 117.598C564.112 114.422 561.059 111.212 558 108C557.67 116.91 557.34 125.82 557 135C555.35 135 553.7 135 552 135C552 124.11 552 113.22 552 102Z" fill="black"/>
<path d="M233 102C238.012 101.959 243.024 101.918 248.188 101.875C249.76 101.857 251.333 101.839 252.954 101.82C254.2 101.815 255.446 101.81 256.73 101.805C258.639 101.789 258.639 101.789 260.587 101.773C263.891 101.993 266.082 102.472 269 104C271.575 107.862 270.995 111.51 270.484 115.914C270 118 270 118 268 121C268.66 121.66 269.32 122.32 270 123C270.195 125.82 270.195 125.82 270.125 129.125C270.107 130.221 270.089 131.316 270.07 132.445C270.047 133.288 270.024 134.131 270 135C268.35 135 266.7 135 265 135C264.67 131.37 264.34 127.74 264 124C260.952 122.984 258.653 122.802 255.457 122.684C254.384 122.642 253.311 122.6 252.205 122.557C251.086 122.517 249.966 122.478 248.812 122.438C247.681 122.394 246.55 122.351 245.385 122.307C242.59 122.201 239.795 122.1 237 122C237 126.29 237 130.58 237 135C235.68 135 234.36 135 233 135C233 124.11 233 113.22 233 102ZM237 106C237 109.96 237 113.92 237 118C241.271 118.081 245.541 118.14 249.812 118.188C251.027 118.213 252.242 118.238 253.494 118.264C254.658 118.273 255.821 118.283 257.02 118.293C258.093 118.309 259.167 118.324 260.273 118.341C263.005 118.221 263.005 118.221 264.843 116.669C266.688 114.009 266.522 112.132 266 109C262.397 106.232 259.749 105.635 255.262 105.707C254.195 105.717 253.128 105.726 252.029 105.736C250.927 105.761 249.824 105.787 248.688 105.812C247.565 105.826 246.443 105.84 245.287 105.854C242.525 105.889 239.762 105.943 237 106Z" fill="black"/>
<path d="M178 102C188.89 102 199.78 102 211 102C211 103.32 211 104.64 211 106C201.76 106 192.52 106 183 106C183 109.3 183 112.6 183 116C191.91 116 200.82 116 210 116C210 117.32 210 118.64 210 120C201.09 120 192.18 120 183 120C183 123.63 183 127.26 183 131C192.24 131 201.48 131 211 131C211 132.32 211 133.64 211 135C200.11 135 189.22 135 178 135C178 124.11 178 113.22 178 102Z" fill="black"/>
<path d="M372.016 101.442C375 102 375 102 376.779 103.769C377.254 104.585 377.729 105.401 378.219 106.242C378.759 107.145 379.299 108.047 379.855 108.977C380.398 109.933 380.941 110.89 381.5 111.875C382.043 112.793 382.585 113.711 383.145 114.656C384.234 116.503 385.314 118.355 386.383 120.214C388.495 123.853 390.701 127.431 392.916 131.008C394 133 394 133 394 135C391.75 135.375 391.75 135.375 389 135C388.557 134.02 388.113 133.041 387.656 132.031C386.683 130.289 386.683 130.289 385 129C380.601 128.063 376.235 128.115 371.75 128.125C370.528 128.104 369.306 128.084 368.047 128.062C365.031 128.015 362.017 127.996 359 128C358.691 128.784 358.381 129.567 358.062 130.375C357 133 357 133 356 135C354.02 135 352.04 135 350 135C353.654 127.428 357.66 120.113 361.938 112.875C362.532 111.823 363.127 110.771 363.74 109.688C364.33 108.695 364.92 107.702 365.527 106.68C366.051 105.78 366.574 104.88 367.113 103.953C369 102 369 102 372.016 101.442ZM372 107C371.02 108.302 370.092 109.644 369.188 111C368.686 111.743 368.185 112.485 367.668 113.25C365.567 116.714 363.812 120.377 362 124C368.6 124 375.2 124 382 124C380.369 119.922 378.641 116.456 376.438 112.688C375.817 111.619 375.197 110.55 374.559 109.449C374.044 108.641 373.53 107.833 373 107C372.67 107 372.34 107 372 107Z" fill="black"/>
<path d="M632.814 101.582C636 102 636 102 638.102 104.383C638.722 105.476 639.342 106.569 639.98 107.695C640.32 108.28 640.66 108.865 641.009 109.468C642.09 111.342 643.139 113.233 644.188 115.125C644.904 116.376 645.622 117.626 646.342 118.875C649.381 124.177 652.302 129.515 655 135C652.188 135.312 652.188 135.312 649 135C647.114 132.611 646 131.081 646 128C641.749 127.994 637.501 128.053 633.25 128.125C632.043 128.122 630.837 128.12 629.594 128.117C623.578 127.955 623.578 127.955 618.376 130.38C617.19 132.196 617.19 132.196 616 135C613.25 135.375 613.25 135.375 611 135C612.492 130.934 614.448 127.36 616.66 123.641C617.01 123.051 617.36 122.461 617.721 121.853C618.456 120.615 619.193 119.378 619.932 118.142C621.066 116.244 622.195 114.343 623.322 112.441C629.487 102.076 629.487 102.076 632.814 101.582ZM632 107C630.495 109.455 628.996 111.914 627.5 114.375C626.856 115.423 626.856 115.423 626.199 116.492C623.84 119.993 623.84 119.993 623 124C629.6 124 636.2 124 643 124C641.742 121.752 640.484 119.504 639.188 117.188C638.797 116.484 638.407 115.78 638.005 115.055C636.26 111.971 634.575 109.421 632 107Z" fill="black"/>
<path d="M407 102C419.21 102 431.42 102 444 102C444 103.32 444 104.64 444 106C438.72 106 433.44 106 428 106C428 115.57 428 125.14 428 135C426.35 135 424.7 135 423 135C423 125.43 423 115.86 423 106C417.72 106 412.44 106 407 106C407 104.68 407 103.36 407 102Z" fill="black"/>
<path d="M123 102C135.21 102 147.42 102 160 102C160 103.32 160 104.64 160 106C154.72 106 149.44 106 144 106C144 115.57 144 125.14 144 135C142.35 135 140.7 135 139 135C139 125.43 139 115.86 139 106C133.72 106 128.44 106 123 106C123 104.68 123 103.36 123 102Z" fill="black"/>
<path d="M672 102C673.65 102 675.3 102 677 102C677 111.57 677 121.14 677 131C685.25 131 693.5 131 702 131C702 132.32 702 133.64 702 135C692.1 135 682.2 135 672 135C672 124.11 672 113.22 672 102Z" fill="black"/>
<path d="M462 102C463.65 102 465.3 102 467 102C467 112.89 467 123.78 467 135C465.35 135 463.7 135 462 135C462 124.11 462 113.22 462 102Z" fill="black"/>
<path d="M37 102C38.32 102 39.64 102 41 102C41 112.89 41 123.78 41 135C39.68 135 38.36 135 37 135C37 124.11 37 113.22 37 102Z" fill="black"/>
</g>
<defs>
<clipPath id="clip0_1969_8931">
<rect width="718" height="146" fill="white"/>
</clipPath>
</defs>
</svg>
